<svg xmlns="http://www.w3.org/2000/svg" width="1500" height="1100" viewBox="0 0 1500 1100" role="img" aria-label="Muta brand asset overview"><title>Muta brand asset overview</title><rect width="1500" height="1100" fill="#FAF9F5"/><g fill="#171C18" transform="translate(70 64) scale(0.019)" aria-label="MUTA / BRAND ASSETS"><path d="M50.0 0.0V-720.0H290.0L490.0 -26.0H403.0L603.0 -720.0H844.0V0.0H692.0V-677.0H718.0L523.0 0.0H364.0L171.0 -671.0H196.0V0.0Z"/><path d="M1243.0 10.0Q1089.0 10.0 1012.5 -74.5Q936.0 -159.0 936.0 -321.0V-720.0H1090.0V-294.0Q1090.0 -200.0 1131.0 -156.0Q1172.0 -112.0 1244.0 -112.0Q1316.0 -112.0 1357.0 -156.0Q1398.0 -200.0 1398.0 -293.0V-720.0H1552.0V-319.0Q1552.0 -159.0 1475.0 -74.5Q1398.0 10.0 1243.0 10.0Z"/><path d="M1853.0 0.0V-602.0H1618.0V-720.0H2242.0V-602.0H2007.0V0.0Z"/><path d="M2175.0 0.0 2433.0 -720.0H2565.0L2328.0 0.0ZM2703.0 0.0 2467.0 -720.0H2605.0L2863.0 0.0ZM2311.0 -279.0H2715.0V-159.0H2311.0Z"/><path d="M3102.0 80.0 3367.0 -770.0H3497.0L3232.0 80.0Z"/><path d="M3888.0 0.0V-110.0H4074.0Q4124.0 -110.0 4149.5 -137.5Q4175.0 -165.0 4175.0 -214.0Q4175.0 -264.0 4147.5 -293.0Q4120.0 -322.0 4069.0 -322.0H3888.0V-432.0H4061.0Q4108.0 -432.0 4132.5 -454.5Q4157.0 -477.0 4157.0 -521.0Q4157.0 -565.0 4133.5 -587.5Q4110.0 -610.0 4064.0 -610.0H3888.0V-720.0H4097.0Q4193.0 -720.0 4252.0 -671.0Q4311.0 -622.0 4311.0 -538.0Q4311.0 -485.0 4286.0 -447.0Q4261.0 -409.0 4219.0 -389.0Q4177.0 -369.0 4125.0 -369.0L4130.0 -390.0Q4186.0 -390.0 4231.5 -366.0Q4277.0 -342.0 4304.0 -298.5Q4331.0 -255.0 4331.0 -196.0Q4331.0 -137.0 4303.5 -92.5Q4276.0 -48.0 4226.5 -24.0Q4177.0 0.0 4110.0 0.0ZM3762.0 0.0V-720.0H3916.0V0.0Z"/><path d="M4402.0 0.0V-720.0H4724.0Q4802.0 -720.0 4860.0 -693.5Q4918.0 -667.0 4950.0 -619.0Q4982.0 -571.0 4982.0 -507.0Q4982.0 -444.0 4950.0 -396.5Q4918.0 -349.0 4860.0 -322.5Q4802.0 -296.0 4724.0 -296.0H4524.0V-409.0H4720.0Q4775.0 -409.0 4804.5 -434.5Q4834.0 -460.0 4834.0 -506.0Q4834.0 -553.0 4805.0 -577.5Q4776.0 -602.0 4720.0 -602.0H4556.0V0.0ZM4808.0 0.0 4519.0 -374.0H4682.0L5016.0 0.0Z"/><path d="M5048.0 0.0 5306.0 -720.0H5438.0L5201.0 0.0ZM5576.0 0.0 5340.0 -720.0H5478.0L5736.0 0.0ZM5184.0 -279.0H5588.0V-159.0H5184.0Z"/><path d="M5810.0 0.0V-720.0H6009.0L6329.0 -84.0L6280.0 -72.0V-720.0H6430.0V0.0H6231.0L5911.0 -636.0L5960.0 -648.0V0.0Z"/><path d="M6624.0 0.0V-120.0H6806.0Q6884.0 -120.0 6938.5 -151.5Q6993.0 -183.0 7021.5 -238.0Q7050.0 -293.0 7050.0 -364.0Q7050.0 -434.0 7022.0 -487.0Q6994.0 -540.0 6939.5 -570.0Q6885.0 -600.0 6806.0 -600.0H6627.0V-720.0H6806.0Q6927.0 -720.0 7017.0 -676.5Q7107.0 -633.0 7156.5 -552.5Q7206.0 -472.0 7206.0 -362.0Q7206.0 -252.0 7156.0 -170.5Q7106.0 -89.0 7016.5 -44.5Q6927.0 0.0 6807.0 0.0ZM6530.0 0.0V-720.0H6684.0V0.0Z"/><path d="M7450.0 0.0 7708.0 -720.0H7840.0L7603.0 0.0ZM7978.0 0.0 7742.0 -720.0H7880.0L8138.0 0.0ZM7586.0 -279.0H7990.0V-159.0H7586.0Z"/><path d="M8471.0 9.0Q8331.0 9.0 8247.0 -53.5Q8163.0 -116.0 8149.0 -230.0H8297.0Q8304.0 -172.0 8353.0 -138.5Q8402.0 -105.0 8478.0 -105.0Q8540.0 -105.0 8573.5 -127.0Q8607.0 -149.0 8607.0 -186.0Q8607.0 -221.0 8587.0 -242.5Q8567.0 -264.0 8518.0 -277.0L8384.0 -314.0Q8281.0 -343.0 8233.5 -393.5Q8186.0 -444.0 8186.0 -520.0Q8186.0 -585.0 8219.5 -632.5Q8253.0 -680.0 8314.0 -705.5Q8375.0 -731.0 8457.0 -731.0Q8583.0 -731.0 8658.0 -671.5Q8733.0 -612.0 8743.0 -514.0H8595.0Q8585.0 -567.0 8546.5 -592.0Q8508.0 -617.0 8448.0 -617.0Q8396.0 -617.0 8365.0 -597.0Q8334.0 -577.0 8334.0 -543.0Q8334.0 -517.0 8351.0 -495.5Q8368.0 -474.0 8422.0 -459.0L8556.0 -422.0Q8662.0 -393.0 8708.5 -342.5Q8755.0 -292.0 8755.0 -215.0Q8755.0 -107.0 8680.0 -49.0Q8605.0 9.0 8471.0 9.0Z"/><path d="M9123.0 9.0Q8983.0 9.0 8899.0 -53.5Q8815.0 -116.0 8801.0 -230.0H8949.0Q8956.0 -172.0 9005.0 -138.5Q9054.0 -105.0 9130.0 -105.0Q9192.0 -105.0 9225.5 -127.0Q9259.0 -149.0 9259.0 -186.0Q9259.0 -221.0 9239.0 -242.5Q9219.0 -264.0 9170.0 -277.0L9036.0 -314.0Q8933.0 -343.0 8885.5 -393.5Q8838.0 -444.0 8838.0 -520.0Q8838.0 -585.0 8871.5 -632.5Q8905.0 -680.0 8966.0 -705.5Q9027.0 -731.0 9109.0 -731.0Q9235.0 -731.0 9310.0 -671.5Q9385.0 -612.0 9395.0 -514.0H9247.0Q9237.0 -567.0 9198.5 -592.0Q9160.0 -617.0 9100.0 -617.0Q9048.0 -617.0 9017.0 -597.0Q8986.0 -577.0 8986.0 -543.0Q8986.0 -517.0 9003.0 -495.5Q9020.0 -474.0 9074.0 -459.0L9208.0 -422.0Q9314.0 -393.0 9360.5 -342.5Q9407.0 -292.0 9407.0 -215.0Q9407.0 -107.0 9332.0 -49.0Q9257.0 9.0 9123.0 9.0Z"/><path d="M9479.0 0.0V-720.0H9633.0V0.0ZM9551.0 0.0V-118.0H10015.0V0.0ZM9551.0 -310.0V-426.0H9980.0V-310.0ZM9551.0 -602.0V-720.0H10003.0V-602.0Z"/><path d="M10311.0 0.0V-602.0H10076.0V-720.0H10700.0V-602.0H10465.0V0.0Z"/><path d="M11030.0 9.0Q10890.0 9.0 10806.0 -53.5Q10722.0 -116.0 10708.0 -230.0H10856.0Q10863.0 -172.0 10912.0 -138.5Q10961.0 -105.0 11037.0 -105.0Q11099.0 -105.0 11132.5 -127.0Q11166.0 -149.0 11166.0 -186.0Q11166.0 -221.0 11146.0 -242.5Q11126.0 -264.0 11077.0 -277.0L10943.0 -314.0Q10840.0 -343.0 10792.5 -393.5Q10745.0 -444.0 10745.0 -520.0Q10745.0 -585.0 10778.5 -632.5Q10812.0 -680.0 10873.0 -705.5Q10934.0 -731.0 11016.0 -731.0Q11142.0 -731.0 11217.0 -671.5Q11292.0 -612.0 11302.0 -514.0H11154.0Q11144.0 -567.0 11105.5 -592.0Q11067.0 -617.0 11007.0 -617.0Q10955.0 -617.0 10924.0 -597.0Q10893.0 -577.0 10893.0 -543.0Q10893.0 -517.0 10910.0 -495.5Q10927.0 -474.0 10981.0 -459.0L11115.0 -422.0Q11221.0 -393.0 11267.5 -342.5Q11314.0 -292.0 11314.0 -215.0Q11314.0 -107.0 11239.0 -49.0Q11164.0 9.0 11030.0 9.0Z"/></g><g fill="#171C18" transform="translate(1110 64) scale(0.019)" aria-label="Book + speaking dot"><path d="M140.0 0.0V-68.0H370.0Q436.0 -68.0 475.0 -104.0Q514.0 -140.0 514.0 -201.0Q514.0 -266.0 473.0 -305.0Q432.0 -344.0 363.0 -344.0H140.0V-410.0H352.0Q420.0 -410.0 458.0 -443.0Q496.0 -476.0 496.0 -536.0Q496.0 -592.0 460.5 -622.0Q425.0 -652.0 357.0 -652.0H140.0V-720.0H364.0Q463.0 -720.0 520.5 -673.0Q578.0 -626.0 578.0 -545.0Q578.0 -494.0 555.0 -454.0Q532.0 -414.0 492.0 -391.5Q452.0 -369.0 400.0 -369.0L405.0 -390.0Q460.0 -390.0 503.5 -364.0Q547.0 -338.0 572.5 -293.5Q598.0 -249.0 598.0 -192.0Q598.0 -135.0 570.5 -91.5Q543.0 -48.0 493.0 -24.0Q443.0 0.0 377.0 0.0ZM86.0 0.0V-720.0H168.0V0.0Z"/><path d="M928.0 10.0Q853.0 10.0 796.0 -25.0Q739.0 -60.0 707.5 -120.5Q676.0 -181.0 676.0 -257.0Q676.0 -334.0 708.0 -393.0Q740.0 -452.0 796.5 -486.0Q853.0 -520.0 928.0 -520.0Q1004.0 -520.0 1060.5 -486.0Q1117.0 -452.0 1148.5 -393.0Q1180.0 -334.0 1180.0 -257.0Q1180.0 -181.0 1148.5 -120.5Q1117.0 -60.0 1060.5 -25.0Q1004.0 10.0 928.0 10.0ZM928.0 -58.0Q980.0 -58.0 1018.0 -83.5Q1056.0 -109.0 1077.0 -154.0Q1098.0 -199.0 1098.0 -258.0Q1098.0 -346.0 1051.5 -399.0Q1005.0 -452.0 928.0 -452.0Q852.0 -452.0 805.0 -399.0Q758.0 -346.0 758.0 -258.0Q758.0 -199.0 779.0 -154.0Q800.0 -109.0 838.5 -83.5Q877.0 -58.0 928.0 -58.0Z"/><path d="M1512.0 10.0Q1437.0 10.0 1380.0 -25.0Q1323.0 -60.0 1291.5 -120.5Q1260.0 -181.0 1260.0 -257.0Q1260.0 -334.0 1292.0 -393.0Q1324.0 -452.0 1380.5 -486.0Q1437.0 -520.0 1512.0 -520.0Q1588.0 -520.0 1644.5 -486.0Q1701.0 -452.0 1732.5 -393.0Q1764.0 -334.0 1764.0 -257.0Q1764.0 -181.0 1732.5 -120.5Q1701.0 -60.0 1644.5 -25.0Q1588.0 10.0 1512.0 10.0ZM1512.0 -58.0Q1564.0 -58.0 1602.0 -83.5Q1640.0 -109.0 1661.0 -154.0Q1682.0 -199.0 1682.0 -258.0Q1682.0 -346.0 1635.5 -399.0Q1589.0 -452.0 1512.0 -452.0Q1436.0 -452.0 1389.0 -399.0Q1342.0 -346.0 1342.0 -258.0Q1342.0 -199.0 1363.0 -154.0Q1384.0 -109.0 1422.5 -83.5Q1461.0 -58.0 1512.0 -58.0Z"/><path d="M1884.0 0.0V-740.0H1964.0V0.0ZM2217.0 0.0 1946.0 -265.0 2207.0 -510.0H2317.0L2024.0 -242.0L2029.0 -289.0L2327.0 0.0Z"/><path d="M2770.0 -153.0V-590.0H2840.0V-153.0ZM2599.0 -337.0V-405.0H3010.0V-337.0Z"/><path d="M3523.0 10.0Q3429.0 10.0 3373.0 -33.5Q3317.0 -77.0 3309.0 -157.0H3386.0Q3393.0 -108.0 3429.0 -82.0Q3465.0 -56.0 3525.0 -56.0Q3578.0 -56.0 3608.0 -76.0Q3638.0 -96.0 3638.0 -133.0Q3638.0 -159.0 3621.0 -178.5Q3604.0 -198.0 3553.0 -211.0L3471.0 -232.0Q3401.0 -250.0 3366.0 -287.5Q3331.0 -325.0 3331.0 -377.0Q3331.0 -443.0 3380.0 -481.5Q3429.0 -520.0 3513.0 -520.0Q3596.0 -520.0 3648.0 -480.0Q3700.0 -440.0 3707.0 -369.0H3630.0Q3623.0 -410.0 3592.0 -432.0Q3561.0 -454.0 3510.0 -454.0Q3461.0 -454.0 3434.0 -435.5Q3407.0 -417.0 3407.0 -383.0Q3407.0 -357.0 3426.5 -338.0Q3446.0 -319.0 3492.0 -306.0L3572.0 -284.0Q3643.0 -265.0 3679.0 -226.0Q3715.0 -187.0 3715.0 -132.0Q3715.0 -65.0 3664.0 -27.5Q3613.0 10.0 3523.0 10.0Z"/><path d="M4075.0 9.0Q4003.0 9.0 3954.0 -26.0Q3905.0 -61.0 3887.0 -125.0L3903.0 -127.0V205.0H3823.0V-510.0H3898.0V-391.0L3887.0 -394.0Q3906.0 -453.0 3959.0 -486.5Q4012.0 -520.0 4082.0 -520.0Q4150.0 -520.0 4200.5 -487.0Q4251.0 -454.0 4279.0 -395.0Q4307.0 -336.0 4307.0 -257.0Q4307.0 -177.0 4278.0 -117.0Q4249.0 -57.0 4197.0 -24.0Q4145.0 9.0 4075.0 9.0ZM4063.0 -61.0Q4139.0 -61.0 4182.0 -113.5Q4225.0 -166.0 4225.0 -257.0Q4225.0 -347.0 4182.0 -398.5Q4139.0 -450.0 4063.0 -450.0Q3987.0 -450.0 3943.0 -397.5Q3899.0 -345.0 3899.0 -254.0Q3899.0 -165.0 3943.0 -113.0Q3987.0 -61.0 4063.0 -61.0Z"/><path d="M4638.0 10.0Q4565.0 10.0 4509.0 -24.5Q4453.0 -59.0 4421.0 -119.0Q4389.0 -179.0 4389.0 -257.0Q4389.0 -335.0 4420.5 -394.5Q4452.0 -454.0 4509.0 -487.0Q4566.0 -520.0 4640.0 -520.0Q4711.0 -520.0 4763.5 -489.0Q4816.0 -458.0 4844.5 -402.0Q4873.0 -346.0 4873.0 -270.0Q4873.0 -260.0 4872.5 -251.0Q4872.0 -242.0 4870.0 -231.0H4449.0V-298.0H4821.0L4795.0 -261.0Q4795.0 -353.0 4754.5 -402.5Q4714.0 -452.0 4640.0 -452.0Q4564.0 -452.0 4517.5 -399.5Q4471.0 -347.0 4471.0 -258.0Q4471.0 -167.0 4517.5 -112.5Q4564.0 -58.0 4642.0 -58.0Q4691.0 -58.0 4728.0 -79.5Q4765.0 -101.0 4782.0 -141.0H4858.0Q4833.0 -71.0 4774.5 -30.5Q4716.0 10.0 4638.0 10.0Z"/><path d="M5303.0 0.0Q5299.0 -17.0 5297.5 -39.0Q5296.0 -61.0 5296.0 -95.0H5291.0V-339.0Q5291.0 -397.0 5264.5 -424.5Q5238.0 -452.0 5179.0 -452.0Q5121.0 -452.0 5086.5 -428.5Q5052.0 -405.0 5048.0 -362.0H4971.0Q4976.0 -436.0 5033.0 -478.0Q5090.0 -520.0 5182.0 -520.0Q5277.0 -520.0 5323.0 -475.0Q5369.0 -430.0 5369.0 -340.0V-95.0Q5369.0 -73.0 5372.0 -49.5Q5375.0 -26.0 5380.0 0.0ZM5128.0 10.0Q5049.0 10.0 5002.5 -28.5Q4956.0 -67.0 4956.0 -134.0Q4956.0 -201.0 5002.0 -238.0Q5048.0 -275.0 5136.0 -290.0L5314.0 -320.0V-254.0L5148.0 -228.0Q5092.0 -219.0 5063.0 -198.0Q5034.0 -177.0 5034.0 -137.0Q5034.0 -98.0 5060.5 -78.0Q5087.0 -58.0 5139.0 -58.0Q5206.0 -58.0 5248.5 -88.5Q5291.0 -119.0 5291.0 -168.0L5304.0 -97.0Q5288.0 -46.0 5241.5 -18.0Q5195.0 10.0 5128.0 10.0Z"/><path d="M5523.0 0.0V-740.0H5603.0V0.0ZM5856.0 0.0 5585.0 -265.0 5846.0 -510.0H5956.0L5663.0 -242.0L5668.0 -289.0L5966.0 0.0Z"/><path d="M6054.0 0.0V-510.0H6134.0V0.0ZM6048.0 -626.0V-720.0H6140.0V-626.0Z"/><path d="M6294.0 0.0V-510.0H6369.0V-390.0H6374.0V0.0ZM6659.0 0.0V-334.0Q6659.0 -392.0 6630.0 -421.0Q6601.0 -450.0 6544.0 -450.0Q6494.0 -450.0 6455.5 -428.0Q6417.0 -406.0 6395.5 -367.0Q6374.0 -328.0 6374.0 -276.0L6361.0 -397.0Q6387.0 -454.0 6440.5 -487.0Q6494.0 -520.0 6562.0 -520.0Q6642.0 -520.0 6690.5 -474.5Q6739.0 -429.0 6739.0 -355.0V0.0Z"/><path d="M7096.0 215.0Q7005.0 215.0 6944.5 172.5Q6884.0 130.0 6871.0 60.0H6947.0Q6958.0 100.0 6996.5 123.5Q7035.0 147.0 7101.0 147.0Q7179.0 147.0 7219.0 104.5Q7259.0 62.0 7259.0 -20.0V-129.0L7269.0 -127.0Q7252.0 -69.0 7201.0 -34.5Q7150.0 0.0 7080.0 0.0Q7013.0 0.0 6962.0 -32.5Q6911.0 -65.0 6883.0 -123.0Q6855.0 -181.0 6855.0 -258.0Q6855.0 -336.0 6884.0 -395.0Q6913.0 -454.0 6965.5 -486.5Q7018.0 -519.0 7088.0 -519.0Q7160.0 -519.0 7208.5 -484.0Q7257.0 -449.0 7273.0 -384.0L7264.0 -383.0V-510.0H7339.0V-20.0Q7339.0 89.0 7274.0 152.0Q7209.0 215.0 7096.0 215.0ZM7100.0 -69.0Q7175.0 -69.0 7219.0 -121.0Q7263.0 -173.0 7263.0 -262.0Q7263.0 -349.0 7219.0 -399.5Q7175.0 -450.0 7100.0 -450.0Q7024.0 -450.0 6980.5 -399.0Q6937.0 -348.0 6937.0 -259.0Q6937.0 -172.0 6981.0 -120.5Q7025.0 -69.0 7100.0 -69.0Z"/><path d="M8070.0 0.0V-119.0L8080.0 -116.0Q8061.0 -58.0 8010.5 -24.0Q7960.0 10.0 7890.0 10.0Q7821.0 10.0 7769.5 -23.0Q7718.0 -56.0 7689.5 -115.0Q7661.0 -174.0 7661.0 -253.0Q7661.0 -333.0 7690.0 -393.0Q7719.0 -453.0 7771.0 -486.0Q7823.0 -519.0 7893.0 -519.0Q7965.0 -519.0 8014.0 -484.0Q8063.0 -449.0 8081.0 -385.0L8065.0 -383.0V-720.0H8145.0V0.0ZM7905.0 -60.0Q7982.0 -60.0 8025.5 -112.5Q8069.0 -165.0 8069.0 -256.0Q8069.0 -345.0 8025.0 -397.0Q7981.0 -449.0 7905.0 -449.0Q7829.0 -449.0 7786.0 -397.0Q7743.0 -345.0 7743.0 -253.0Q7743.0 -163.0 7786.0 -111.5Q7829.0 -60.0 7905.0 -60.0Z"/><path d="M8517.0 10.0Q8442.0 10.0 8385.0 -25.0Q8328.0 -60.0 8296.5 -120.5Q8265.0 -181.0 8265.0 -257.0Q8265.0 -334.0 8297.0 -393.0Q8329.0 -452.0 8385.5 -486.0Q8442.0 -520.0 8517.0 -520.0Q8593.0 -520.0 8649.5 -486.0Q8706.0 -452.0 8737.5 -393.0Q8769.0 -334.0 8769.0 -257.0Q8769.0 -181.0 8737.5 -120.5Q8706.0 -60.0 8649.5 -25.0Q8593.0 10.0 8517.0 10.0ZM8517.0 -58.0Q8569.0 -58.0 8607.0 -83.5Q8645.0 -109.0 8666.0 -154.0Q8687.0 -199.0 8687.0 -258.0Q8687.0 -346.0 8640.5 -399.0Q8594.0 -452.0 8517.0 -452.0Q8441.0 -452.0 8394.0 -399.0Q8347.0 -346.0 8347.0 -258.0Q8347.0 -199.0 8368.0 -154.0Q8389.0 -109.0 8427.5 -83.5Q8466.0 -58.0 8517.0 -58.0Z"/><path d="M9088.0 9.0Q9003.0 9.0 8964.5 -29.5Q8926.0 -68.0 8926.0 -141.0V-629.0L9006.0 -659.0V-142.0Q9006.0 -99.0 9028.0 -79.0Q9050.0 -59.0 9100.0 -59.0Q9120.0 -59.0 9134.5 -61.5Q9149.0 -64.0 9158.0 -68.0V0.0Q9148.0 4.0 9129.5 6.5Q9111.0 9.0 9088.0 9.0ZM8821.0 -442.0V-510.0H9158.0V-442.0Z"/></g><path d="M70 92H1430" stroke="#d6d8ce"/><svg x="70" y="160" width="760" height="783" viewBox="0 0 1000 1030" overflow="visible"><svg x="120" y="0" width="760" height="760" viewBox="0 0 512 512" overflow="visible"><path d="M48 109Q40 106 40 114V366Q40 373 47 370C117 350 198 357 251 396C211 351 149 329 73 335Q61 335 61 324V113Z" fill="#1D251F"/><path d="M464 109Q472 106 472 114V366Q472 373 465 370C395 350 314 357 261 396C301 351 363 329 439 335Q451 335 451 324V113Z" fill="#1D251F"/><path d="M76 64C145 69 207 92 243 126Q252 135 252 149V382C205 342 143 318 76 322Q68 322 68 314V72Q68 63 76 64Z" fill="#F5F1E7" stroke="#1D251F" stroke-width="2" stroke-linejoin="round"/><path d="M269 126C313 88 376 63 436 56Q444 55 444 64V314Q444 322 436 322C369 320 307 342 260 382V149Q260 135 269 126Z" fill="#AD4F31"/></svg><svg x="0" y="597" width="1000" height="390" viewBox="0 0 1000 390" overflow="visible"><g transform="translate(25.345133 285.761062) scale(0.32566372)" fill="#171C18"><path d="M550.0 -179.0 810.0 -770.0H1034.0V-732.0Q991.0 -731.0 970.0 -718.5Q949.0 -706.0 942.0 -674.0Q935.0 -642.0 935.0 -581.0V-189.0Q935.0 -123.0 942.5 -91.5Q950.0 -60.0 973.5 -50.0Q997.0 -40.0 1044.0 -38.0V0.0H720.0V-38.0Q767.0 -40.0 790.5 -50.0Q814.0 -60.0 822.0 -90.0Q830.0 -120.0 830.0 -182.0V-646.0H820.0L528.0 10.0H506.0L219.0 -646.0H215.0V-189.0Q215.0 -123.0 222.5 -91.5Q230.0 -60.0 253.5 -50.0Q277.0 -40.0 324.0 -38.0V0.0H45.0V-38.0Q92.0 -40.0 115.5 -50.0Q139.0 -60.0 147.0 -90.0Q155.0 -120.0 155.0 -182.0V-588.0Q155.0 -645.0 148.0 -675.0Q141.0 -705.0 119.5 -717.5Q98.0 -730.0 55.0 -732.0V-770.0H294.0L546.0 -179.0Z"/><path d="M1533.0 -272.0V-370.0Q1533.0 -425.0 1528.5 -450.0Q1524.0 -475.0 1506.5 -483.0Q1489.0 -491.0 1450.0 -495.0V-530.0H1631.0V-223.0Q1631.0 -112.0 1637.0 -76.0Q1642.0 -51.0 1657.0 -43.5Q1672.0 -36.0 1718.0 -36.0V-1.0L1553.0 11.0L1542.0 -109.0H1538.0Q1500.0 -48.0 1450.5 -19.0Q1401.0 10.0 1347.0 10.0Q1305.0 10.0 1265.5 -6.0Q1226.0 -22.0 1206.0 -49.0Q1174.0 -91.0 1174.0 -211.0V-370.0Q1174.0 -425.0 1169.5 -450.0Q1165.0 -475.0 1147.5 -483.5Q1130.0 -492.0 1091.0 -495.0V-530.0H1272.0V-257.0Q1272.0 -149.0 1298.0 -99.5Q1324.0 -50.0 1379.0 -50.0Q1467.0 -50.0 1516.0 -165.0Q1526.0 -188.0 1529.5 -208.5Q1533.0 -229.0 1533.0 -272.0Z"/><path d="M1840.0 -467.0H1780.0V-504.0Q1833.0 -536.0 1863.0 -566.5Q1893.0 -597.0 1909.0 -640.0H1938.0V-514.0H2072.0V-467.0H1938.0V-163.0Q1938.0 -93.0 1952.5 -66.0Q1967.0 -39.0 2007.0 -39.0Q2032.0 -39.0 2050.0 -49.5Q2068.0 -60.0 2084.0 -85.0L2109.0 -66.0Q2080.0 10.0 1975.0 10.0Q1909.0 10.0 1874.5 -22.0Q1840.0 -54.0 1840.0 -112.0Z"/><path d="M2323.0 -276.0 2467.0 -339.0V-380.0Q2467.0 -443.0 2441.5 -472.5Q2416.0 -502.0 2361.0 -502.0Q2329.0 -502.0 2314.5 -489.0Q2300.0 -476.0 2287.0 -437.0Q2276.0 -409.0 2265.5 -399.0Q2255.0 -389.0 2235.0 -389.0Q2185.0 -389.0 2185.0 -439.0Q2185.0 -487.0 2236.0 -513.5Q2287.0 -540.0 2381.0 -540.0Q2482.0 -540.0 2523.5 -505.0Q2565.0 -470.0 2565.0 -384.0V-160.0Q2565.0 -98.0 2577.0 -72.0Q2589.0 -46.0 2615.0 -46.0Q2625.0 -46.0 2638.5 -50.5Q2652.0 -55.0 2659.0 -68.0L2673.0 -44.0Q2661.0 -21.0 2629.0 -5.5Q2597.0 10.0 2562.0 10.0Q2519.0 10.0 2497.0 -18.0Q2475.0 -46.0 2475.0 -97.0H2470.0Q2443.0 -48.0 2397.0 -19.5Q2351.0 9.0 2295.0 9.0Q2234.0 9.0 2197.5 -23.5Q2161.0 -56.0 2161.0 -110.0Q2161.0 -157.0 2196.0 -196.5Q2231.0 -236.0 2323.0 -276.0ZM2467.0 -217.0V-296.0Q2352.0 -253.0 2307.0 -211.5Q2262.0 -170.0 2262.0 -127.0Q2262.0 -93.0 2284.0 -72.0Q2306.0 -51.0 2340.0 -51.0Q2376.0 -51.0 2405.0 -73.5Q2434.0 -96.0 2450.5 -134.0Q2467.0 -172.0 2467.0 -217.0Z"/><path d="M2739.0 -55.0Q2739.0 -83.0 2758.0 -102.0Q2777.0 -121.0 2804.0 -121.0Q2832.0 -121.0 2851.0 -102.0Q2870.0 -83.0 2870.0 -55.0Q2870.0 -28.0 2851.0 -9.0Q2832.0 10.0 2804.0 10.0Q2777.0 10.0 2758.0 -9.0Q2739.0 -28.0 2739.0 -55.0Z"/></g><path transform="translate(454.73982300884956 308.3433628318584) scale(1.4)" d="M3 0H37Q40 0 40 3V37Q40 40 37 40H10L0 47.2V3Q0 0 3 0Z" fill="#AD4F31"/></svg></svg><rect x="920" y="150" width="510" height="480" fill="#1D251F"/><svg x="1018" y="185" width="315" height="315" viewBox="0 0 512 512" overflow="visible"><path d="M48 109Q40 106 40 114V366Q40 373 47 370C117 350 198 357 251 396C211 351 149 329 73 335Q61 335 61 324V113Z" fill="#F5F1E7"/><path d="M464 109Q472 106 472 114V366Q472 373 465 370C395 350 314 357 261 396C301 351 363 329 439 335Q451 335 451 324V113Z" fill="#F5F1E7"/><path d="M76 64C145 69 207 92 243 126Q252 135 252 149V382C205 342 143 318 76 322Q68 322 68 314V72Q68 63 76 64Z" fill="#F5F1E7"/><path d="M269 126C313 88 376 63 436 56Q444 55 444 64V314Q444 322 436 322C369 320 307 342 260 382V149Q260 135 269 126Z" fill="#E58C69"/><path transform="translate(236 427) scale(1.0)" d="M3 0H37Q40 0 40 3V37Q40 40 37 40H10L0 47.2V3Q0 0 3 0Z" fill="#E58C69"/></svg><g fill="#F5F1E7" transform="translate(987 579) scale(0.019)" aria-label="The standalone mark"><path d="M283.0 0.0V-648.0H36.0V-720.0H612.0V-648.0H365.0V0.0Z"/><path d="M728.0 0.0V-720.0H808.0V0.0ZM1093.0 0.0V-334.0Q1093.0 -392.0 1064.0 -421.0Q1035.0 -450.0 978.0 -450.0Q928.0 -450.0 889.5 -428.0Q851.0 -406.0 829.5 -367.0Q808.0 -328.0 808.0 -276.0L795.0 -397.0Q821.0 -454.0 874.5 -487.0Q928.0 -520.0 996.0 -520.0Q1076.0 -520.0 1124.5 -474.5Q1173.0 -429.0 1173.0 -355.0V0.0Z"/><path d="M1536.0 10.0Q1463.0 10.0 1407.0 -24.5Q1351.0 -59.0 1319.0 -119.0Q1287.0 -179.0 1287.0 -257.0Q1287.0 -335.0 1318.5 -394.5Q1350.0 -454.0 1407.0 -487.0Q1464.0 -520.0 1538.0 -520.0Q1609.0 -520.0 1661.5 -489.0Q1714.0 -458.0 1742.5 -402.0Q1771.0 -346.0 1771.0 -270.0Q1771.0 -260.0 1770.5 -251.0Q1770.0 -242.0 1768.0 -231.0H1347.0V-298.0H1719.0L1693.0 -261.0Q1693.0 -353.0 1652.5 -402.5Q1612.0 -452.0 1538.0 -452.0Q1462.0 -452.0 1415.5 -399.5Q1369.0 -347.0 1369.0 -258.0Q1369.0 -167.0 1415.5 -112.5Q1462.0 -58.0 1540.0 -58.0Q1589.0 -58.0 1626.0 -79.5Q1663.0 -101.0 1680.0 -141.0H1756.0Q1731.0 -71.0 1672.5 -30.5Q1614.0 10.0 1536.0 10.0Z"/><path d="M2264.0 10.0Q2170.0 10.0 2114.0 -33.5Q2058.0 -77.0 2050.0 -157.0H2127.0Q2134.0 -108.0 2170.0 -82.0Q2206.0 -56.0 2266.0 -56.0Q2319.0 -56.0 2349.0 -76.0Q2379.0 -96.0 2379.0 -133.0Q2379.0 -159.0 2362.0 -178.5Q2345.0 -198.0 2294.0 -211.0L2212.0 -232.0Q2142.0 -250.0 2107.0 -287.5Q2072.0 -325.0 2072.0 -377.0Q2072.0 -443.0 2121.0 -481.5Q2170.0 -520.0 2254.0 -520.0Q2337.0 -520.0 2389.0 -480.0Q2441.0 -440.0 2448.0 -369.0H2371.0Q2364.0 -410.0 2333.0 -432.0Q2302.0 -454.0 2251.0 -454.0Q2202.0 -454.0 2175.0 -435.5Q2148.0 -417.0 2148.0 -383.0Q2148.0 -357.0 2167.5 -338.0Q2187.0 -319.0 2233.0 -306.0L2313.0 -284.0Q2384.0 -265.0 2420.0 -226.0Q2456.0 -187.0 2456.0 -132.0Q2456.0 -65.0 2405.0 -27.5Q2354.0 10.0 2264.0 10.0Z"/><path d="M2768.0 9.0Q2683.0 9.0 2644.5 -29.5Q2606.0 -68.0 2606.0 -141.0V-629.0L2686.0 -659.0V-142.0Q2686.0 -99.0 2708.0 -79.0Q2730.0 -59.0 2780.0 -59.0Q2800.0 -59.0 2814.5 -61.5Q2829.0 -64.0 2838.0 -68.0V0.0Q2828.0 4.0 2809.5 6.5Q2791.0 9.0 2768.0 9.0ZM2501.0 -442.0V-510.0H2838.0V-442.0Z"/><path d="M3254.0 0.0Q3250.0 -17.0 3248.5 -39.0Q3247.0 -61.0 3247.0 -95.0H3242.0V-339.0Q3242.0 -397.0 3215.5 -424.5Q3189.0 -452.0 3130.0 -452.0Q3072.0 -452.0 3037.5 -428.5Q3003.0 -405.0 2999.0 -362.0H2922.0Q2927.0 -436.0 2984.0 -478.0Q3041.0 -520.0 3133.0 -520.0Q3228.0 -520.0 3274.0 -475.0Q3320.0 -430.0 3320.0 -340.0V-95.0Q3320.0 -73.0 3323.0 -49.5Q3326.0 -26.0 3331.0 0.0ZM3079.0 10.0Q3000.0 10.0 2953.5 -28.5Q2907.0 -67.0 2907.0 -134.0Q2907.0 -201.0 2953.0 -238.0Q2999.0 -275.0 3087.0 -290.0L3265.0 -320.0V-254.0L3099.0 -228.0Q3043.0 -219.0 3014.0 -198.0Q2985.0 -177.0 2985.0 -137.0Q2985.0 -98.0 3011.5 -78.0Q3038.0 -58.0 3090.0 -58.0Q3157.0 -58.0 3199.5 -88.5Q3242.0 -119.0 3242.0 -168.0L3255.0 -97.0Q3239.0 -46.0 3192.5 -18.0Q3146.0 10.0 3079.0 10.0Z"/><path d="M3474.0 0.0V-510.0H3549.0V-390.0H3554.0V0.0ZM3839.0 0.0V-334.0Q3839.0 -392.0 3810.0 -421.0Q3781.0 -450.0 3724.0 -450.0Q3674.0 -450.0 3635.5 -428.0Q3597.0 -406.0 3575.5 -367.0Q3554.0 -328.0 3554.0 -276.0L3541.0 -397.0Q3567.0 -454.0 3620.5 -487.0Q3674.0 -520.0 3742.0 -520.0Q3822.0 -520.0 3870.5 -474.5Q3919.0 -429.0 3919.0 -355.0V0.0Z"/><path d="M4444.0 0.0V-119.0L4454.0 -116.0Q4435.0 -58.0 4384.5 -24.0Q4334.0 10.0 4264.0 10.0Q4195.0 10.0 4143.5 -23.0Q4092.0 -56.0 4063.5 -115.0Q4035.0 -174.0 4035.0 -253.0Q4035.0 -333.0 4064.0 -393.0Q4093.0 -453.0 4145.0 -486.0Q4197.0 -519.0 4267.0 -519.0Q4339.0 -519.0 4388.0 -484.0Q4437.0 -449.0 4455.0 -385.0L4439.0 -383.0V-720.0H4519.0V0.0ZM4279.0 -60.0Q4356.0 -60.0 4399.5 -112.5Q4443.0 -165.0 4443.0 -256.0Q4443.0 -345.0 4399.0 -397.0Q4355.0 -449.0 4279.0 -449.0Q4203.0 -449.0 4160.0 -397.0Q4117.0 -345.0 4117.0 -253.0Q4117.0 -163.0 4160.0 -111.5Q4203.0 -60.0 4279.0 -60.0Z"/><path d="M4992.0 0.0Q4988.0 -17.0 4986.5 -39.0Q4985.0 -61.0 4985.0 -95.0H4980.0V-339.0Q4980.0 -397.0 4953.5 -424.5Q4927.0 -452.0 4868.0 -452.0Q4810.0 -452.0 4775.5 -428.5Q4741.0 -405.0 4737.0 -362.0H4660.0Q4665.0 -436.0 4722.0 -478.0Q4779.0 -520.0 4871.0 -520.0Q4966.0 -520.0 5012.0 -475.0Q5058.0 -430.0 5058.0 -340.0V-95.0Q5058.0 -73.0 5061.0 -49.5Q5064.0 -26.0 5069.0 0.0ZM4817.0 10.0Q4738.0 10.0 4691.5 -28.5Q4645.0 -67.0 4645.0 -134.0Q4645.0 -201.0 4691.0 -238.0Q4737.0 -275.0 4825.0 -290.0L5003.0 -320.0V-254.0L4837.0 -228.0Q4781.0 -219.0 4752.0 -198.0Q4723.0 -177.0 4723.0 -137.0Q4723.0 -98.0 4749.5 -78.0Q4776.0 -58.0 4828.0 -58.0Q4895.0 -58.0 4937.5 -88.5Q4980.0 -119.0 4980.0 -168.0L4993.0 -97.0Q4977.0 -46.0 4930.5 -18.0Q4884.0 10.0 4817.0 10.0Z"/><path d="M5212.0 0.0V-720.0H5292.0V0.0Z"/><path d="M5664.0 10.0Q5589.0 10.0 5532.0 -25.0Q5475.0 -60.0 5443.5 -120.5Q5412.0 -181.0 5412.0 -257.0Q5412.0 -334.0 5444.0 -393.0Q5476.0 -452.0 5532.5 -486.0Q5589.0 -520.0 5664.0 -520.0Q5740.0 -520.0 5796.5 -486.0Q5853.0 -452.0 5884.5 -393.0Q5916.0 -334.0 5916.0 -257.0Q5916.0 -181.0 5884.5 -120.5Q5853.0 -60.0 5796.5 -25.0Q5740.0 10.0 5664.0 10.0ZM5664.0 -58.0Q5716.0 -58.0 5754.0 -83.5Q5792.0 -109.0 5813.0 -154.0Q5834.0 -199.0 5834.0 -258.0Q5834.0 -346.0 5787.5 -399.0Q5741.0 -452.0 5664.0 -452.0Q5588.0 -452.0 5541.0 -399.0Q5494.0 -346.0 5494.0 -258.0Q5494.0 -199.0 5515.0 -154.0Q5536.0 -109.0 5574.5 -83.5Q5613.0 -58.0 5664.0 -58.0Z"/><path d="M6036.0 0.0V-510.0H6111.0V-390.0H6116.0V0.0ZM6401.0 0.0V-334.0Q6401.0 -392.0 6372.0 -421.0Q6343.0 -450.0 6286.0 -450.0Q6236.0 -450.0 6197.5 -428.0Q6159.0 -406.0 6137.5 -367.0Q6116.0 -328.0 6116.0 -276.0L6103.0 -397.0Q6129.0 -454.0 6182.5 -487.0Q6236.0 -520.0 6304.0 -520.0Q6384.0 -520.0 6432.5 -474.5Q6481.0 -429.0 6481.0 -355.0V0.0Z"/><path d="M6844.0 10.0Q6771.0 10.0 6715.0 -24.5Q6659.0 -59.0 6627.0 -119.0Q6595.0 -179.0 6595.0 -257.0Q6595.0 -335.0 6626.5 -394.5Q6658.0 -454.0 6715.0 -487.0Q6772.0 -520.0 6846.0 -520.0Q6917.0 -520.0 6969.5 -489.0Q7022.0 -458.0 7050.5 -402.0Q7079.0 -346.0 7079.0 -270.0Q7079.0 -260.0 7078.5 -251.0Q7078.0 -242.0 7076.0 -231.0H6655.0V-298.0H7027.0L7001.0 -261.0Q7001.0 -353.0 6960.5 -402.5Q6920.0 -452.0 6846.0 -452.0Q6770.0 -452.0 6723.5 -399.5Q6677.0 -347.0 6677.0 -258.0Q6677.0 -167.0 6723.5 -112.5Q6770.0 -58.0 6848.0 -58.0Q6897.0 -58.0 6934.0 -79.5Q6971.0 -101.0 6988.0 -141.0H7064.0Q7039.0 -71.0 6980.5 -30.5Q6922.0 10.0 6844.0 10.0Z"/><path d="M7399.0 0.0V-510.0H7474.0V-390.0H7479.0V0.0ZM7743.0 0.0V-338.0Q7743.0 -396.0 7717.0 -423.0Q7691.0 -450.0 7642.0 -450.0Q7596.0 -450.0 7559.0 -428.0Q7522.0 -406.0 7500.5 -367.0Q7479.0 -328.0 7479.0 -276.0L7466.0 -397.0Q7492.0 -454.0 7544.0 -487.0Q7596.0 -520.0 7657.0 -520.0Q7731.0 -520.0 7777.0 -476.5Q7823.0 -433.0 7823.0 -359.0V0.0ZM8087.0 0.0V-338.0Q8087.0 -396.0 8061.0 -423.0Q8035.0 -450.0 7986.0 -450.0Q7940.0 -450.0 7903.0 -428.0Q7866.0 -406.0 7844.5 -367.0Q7823.0 -328.0 7823.0 -276.0L7803.0 -397.0Q7829.0 -454.0 7883.0 -487.0Q7937.0 -520.0 7999.0 -520.0Q8073.0 -520.0 8120.0 -476.5Q8167.0 -433.0 8167.0 -359.0V0.0Z"/><path d="M8631.0 0.0Q8627.0 -17.0 8625.5 -39.0Q8624.0 -61.0 8624.0 -95.0H8619.0V-339.0Q8619.0 -397.0 8592.5 -424.5Q8566.0 -452.0 8507.0 -452.0Q8449.0 -452.0 8414.5 -428.5Q8380.0 -405.0 8376.0 -362.0H8299.0Q8304.0 -436.0 8361.0 -478.0Q8418.0 -520.0 8510.0 -520.0Q8605.0 -520.0 8651.0 -475.0Q8697.0 -430.0 8697.0 -340.0V-95.0Q8697.0 -73.0 8700.0 -49.5Q8703.0 -26.0 8708.0 0.0ZM8456.0 10.0Q8377.0 10.0 8330.5 -28.5Q8284.0 -67.0 8284.0 -134.0Q8284.0 -201.0 8330.0 -238.0Q8376.0 -275.0 8464.0 -290.0L8642.0 -320.0V-254.0L8476.0 -228.0Q8420.0 -219.0 8391.0 -198.0Q8362.0 -177.0 8362.0 -137.0Q8362.0 -98.0 8388.5 -78.0Q8415.0 -58.0 8467.0 -58.0Q8534.0 -58.0 8576.5 -88.5Q8619.0 -119.0 8619.0 -168.0L8632.0 -97.0Q8616.0 -46.0 8569.5 -18.0Q8523.0 10.0 8456.0 10.0Z"/><path d="M8851.0 0.0V-510.0H8926.0V-380.0H8931.0V0.0ZM8931.0 -266.0 8918.0 -387.0Q8936.0 -452.0 8982.0 -486.0Q9028.0 -520.0 9088.0 -520.0Q9113.0 -520.0 9122.0 -516.0V-439.0Q9117.0 -441.0 9108.0 -441.5Q9099.0 -442.0 9086.0 -442.0Q9010.0 -442.0 8970.5 -396.5Q8931.0 -351.0 8931.0 -266.0Z"/><path d="M9226.0 0.0V-740.0H9306.0V0.0ZM9559.0 0.0 9288.0 -265.0 9549.0 -510.0H9659.0L9366.0 -242.0L9371.0 -289.0L9669.0 0.0Z"/></g><svg x="930" y="690" width="500" height="148" viewBox="0 0 1120 330" overflow="visible"><svg x="10" y="8" width="290" height="290" viewBox="0 0 512 512" overflow="visible"><path d="M48 109Q40 106 40 114V366Q40 373 47 370C117 350 198 357 251 396C211 351 149 329 73 335Q61 335 61 324V113Z" fill="#000000"/><path d="M464 109Q472 106 472 114V366Q472 373 465 370C395 350 314 357 261 396C301 351 363 329 439 335Q451 335 451 324V113Z" fill="#000000"/><path d="M76 64C145 69 207 92 243 126Q252 135 252 149V382C205 342 143 318 76 322Q68 322 68 314V72Q68 63 76 64Z" fill="none" stroke="#000000" stroke-width="6" stroke-linejoin="round"/><path d="M269 126C313 88 376 63 436 56Q444 55 444 64V314Q444 322 436 322C369 320 307 342 260 382V149Q260 135 269 126Z" fill="#000000"/></svg><svg x="310" y="0" width="800" height="312" viewBox="0 0 1000 390" overflow="visible"><g transform="translate(25.345133 285.761062) scale(0.32566372)" fill="#000000"><path d="M550.0 -179.0 810.0 -770.0H1034.0V-732.0Q991.0 -731.0 970.0 -718.5Q949.0 -706.0 942.0 -674.0Q935.0 -642.0 935.0 -581.0V-189.0Q935.0 -123.0 942.5 -91.5Q950.0 -60.0 973.5 -50.0Q997.0 -40.0 1044.0 -38.0V0.0H720.0V-38.0Q767.0 -40.0 790.5 -50.0Q814.0 -60.0 822.0 -90.0Q830.0 -120.0 830.0 -182.0V-646.0H820.0L528.0 10.0H506.0L219.0 -646.0H215.0V-189.0Q215.0 -123.0 222.5 -91.5Q230.0 -60.0 253.5 -50.0Q277.0 -40.0 324.0 -38.0V0.0H45.0V-38.0Q92.0 -40.0 115.5 -50.0Q139.0 -60.0 147.0 -90.0Q155.0 -120.0 155.0 -182.0V-588.0Q155.0 -645.0 148.0 -675.0Q141.0 -705.0 119.5 -717.5Q98.0 -730.0 55.0 -732.0V-770.0H294.0L546.0 -179.0Z"/><path d="M1533.0 -272.0V-370.0Q1533.0 -425.0 1528.5 -450.0Q1524.0 -475.0 1506.5 -483.0Q1489.0 -491.0 1450.0 -495.0V-530.0H1631.0V-223.0Q1631.0 -112.0 1637.0 -76.0Q1642.0 -51.0 1657.0 -43.5Q1672.0 -36.0 1718.0 -36.0V-1.0L1553.0 11.0L1542.0 -109.0H1538.0Q1500.0 -48.0 1450.5 -19.0Q1401.0 10.0 1347.0 10.0Q1305.0 10.0 1265.5 -6.0Q1226.0 -22.0 1206.0 -49.0Q1174.0 -91.0 1174.0 -211.0V-370.0Q1174.0 -425.0 1169.5 -450.0Q1165.0 -475.0 1147.5 -483.5Q1130.0 -492.0 1091.0 -495.0V-530.0H1272.0V-257.0Q1272.0 -149.0 1298.0 -99.5Q1324.0 -50.0 1379.0 -50.0Q1467.0 -50.0 1516.0 -165.0Q1526.0 -188.0 1529.5 -208.5Q1533.0 -229.0 1533.0 -272.0Z"/><path d="M1840.0 -467.0H1780.0V-504.0Q1833.0 -536.0 1863.0 -566.5Q1893.0 -597.0 1909.0 -640.0H1938.0V-514.0H2072.0V-467.0H1938.0V-163.0Q1938.0 -93.0 1952.5 -66.0Q1967.0 -39.0 2007.0 -39.0Q2032.0 -39.0 2050.0 -49.5Q2068.0 -60.0 2084.0 -85.0L2109.0 -66.0Q2080.0 10.0 1975.0 10.0Q1909.0 10.0 1874.5 -22.0Q1840.0 -54.0 1840.0 -112.0Z"/><path d="M2323.0 -276.0 2467.0 -339.0V-380.0Q2467.0 -443.0 2441.5 -472.5Q2416.0 -502.0 2361.0 -502.0Q2329.0 -502.0 2314.5 -489.0Q2300.0 -476.0 2287.0 -437.0Q2276.0 -409.0 2265.5 -399.0Q2255.0 -389.0 2235.0 -389.0Q2185.0 -389.0 2185.0 -439.0Q2185.0 -487.0 2236.0 -513.5Q2287.0 -540.0 2381.0 -540.0Q2482.0 -540.0 2523.5 -505.0Q2565.0 -470.0 2565.0 -384.0V-160.0Q2565.0 -98.0 2577.0 -72.0Q2589.0 -46.0 2615.0 -46.0Q2625.0 -46.0 2638.5 -50.5Q2652.0 -55.0 2659.0 -68.0L2673.0 -44.0Q2661.0 -21.0 2629.0 -5.5Q2597.0 10.0 2562.0 10.0Q2519.0 10.0 2497.0 -18.0Q2475.0 -46.0 2475.0 -97.0H2470.0Q2443.0 -48.0 2397.0 -19.5Q2351.0 9.0 2295.0 9.0Q2234.0 9.0 2197.5 -23.5Q2161.0 -56.0 2161.0 -110.0Q2161.0 -157.0 2196.0 -196.5Q2231.0 -236.0 2323.0 -276.0ZM2467.0 -217.0V-296.0Q2352.0 -253.0 2307.0 -211.5Q2262.0 -170.0 2262.0 -127.0Q2262.0 -93.0 2284.0 -72.0Q2306.0 -51.0 2340.0 -51.0Q2376.0 -51.0 2405.0 -73.5Q2434.0 -96.0 2450.5 -134.0Q2467.0 -172.0 2467.0 -217.0Z"/><path d="M2739.0 -55.0Q2739.0 -83.0 2758.0 -102.0Q2777.0 -121.0 2804.0 -121.0Q2832.0 -121.0 2851.0 -102.0Q2870.0 -83.0 2870.0 -55.0Q2870.0 -28.0 2851.0 -9.0Q2832.0 10.0 2804.0 10.0Q2777.0 10.0 2758.0 -9.0Q2739.0 -28.0 2739.0 -55.0Z"/></g><path transform="translate(454.73982300884956 308.3433628318584) scale(1.4)" d="M3 0H37Q40 0 40 3V37Q40 40 37 40H10L0 47.2V3Q0 0 3 0Z" fill="#000000"/></svg></svg><g fill="#171C18" transform="translate(949 859) scale(0.016)" aria-label="Single-color master"><path d="M330.0 9.0Q204.0 9.0 129.5 -53.0Q55.0 -115.0 42.0 -230.0H122.0Q133.0 -147.0 185.0 -105.0Q237.0 -63.0 329.0 -63.0Q407.0 -63.0 446.5 -92.5Q486.0 -122.0 486.0 -179.0Q486.0 -228.0 459.0 -257.0Q432.0 -286.0 375.0 -305.0L254.0 -347.0Q162.0 -379.0 118.0 -424.5Q74.0 -470.0 74.0 -540.0Q74.0 -598.0 103.0 -640.5Q132.0 -683.0 185.0 -707.0Q238.0 -731.0 308.0 -731.0Q416.0 -731.0 481.0 -674.5Q546.0 -618.0 556.0 -514.0H476.0Q463.0 -589.0 422.5 -624.0Q382.0 -659.0 306.0 -659.0Q234.0 -659.0 194.0 -630.0Q154.0 -601.0 154.0 -548.0Q154.0 -503.0 182.0 -476.0Q210.0 -449.0 269.0 -429.0L398.0 -384.0Q482.0 -355.0 524.0 -305.5Q566.0 -256.0 566.0 -180.0Q566.0 -90.0 504.5 -40.5Q443.0 9.0 330.0 9.0Z"/><path d="M692.0 0.0V-510.0H772.0V0.0ZM686.0 -626.0V-720.0H778.0V-626.0Z"/><path d="M932.0 0.0V-510.0H1007.0V-390.0H1012.0V0.0ZM1297.0 0.0V-334.0Q1297.0 -392.0 1268.0 -421.0Q1239.0 -450.0 1182.0 -450.0Q1132.0 -450.0 1093.5 -428.0Q1055.0 -406.0 1033.5 -367.0Q1012.0 -328.0 1012.0 -276.0L999.0 -397.0Q1025.0 -454.0 1078.5 -487.0Q1132.0 -520.0 1200.0 -520.0Q1280.0 -520.0 1328.5 -474.5Q1377.0 -429.0 1377.0 -355.0V0.0Z"/><path d="M1734.0 215.0Q1643.0 215.0 1582.5 172.5Q1522.0 130.0 1509.0 60.0H1585.0Q1596.0 100.0 1634.5 123.5Q1673.0 147.0 1739.0 147.0Q1817.0 147.0 1857.0 104.5Q1897.0 62.0 1897.0 -20.0V-129.0L1907.0 -127.0Q1890.0 -69.0 1839.0 -34.5Q1788.0 0.0 1718.0 0.0Q1651.0 0.0 1600.0 -32.5Q1549.0 -65.0 1521.0 -123.0Q1493.0 -181.0 1493.0 -258.0Q1493.0 -336.0 1522.0 -395.0Q1551.0 -454.0 1603.5 -486.5Q1656.0 -519.0 1726.0 -519.0Q1798.0 -519.0 1846.5 -484.0Q1895.0 -449.0 1911.0 -384.0L1902.0 -383.0V-510.0H1977.0V-20.0Q1977.0 89.0 1912.0 152.0Q1847.0 215.0 1734.0 215.0ZM1738.0 -69.0Q1813.0 -69.0 1857.0 -121.0Q1901.0 -173.0 1901.0 -262.0Q1901.0 -349.0 1857.0 -399.5Q1813.0 -450.0 1738.0 -450.0Q1662.0 -450.0 1618.5 -399.0Q1575.0 -348.0 1575.0 -259.0Q1575.0 -172.0 1619.0 -120.5Q1663.0 -69.0 1738.0 -69.0Z"/><path d="M2137.0 0.0V-720.0H2217.0V0.0Z"/><path d="M2586.0 10.0Q2513.0 10.0 2457.0 -24.5Q2401.0 -59.0 2369.0 -119.0Q2337.0 -179.0 2337.0 -257.0Q2337.0 -335.0 2368.5 -394.5Q2400.0 -454.0 2457.0 -487.0Q2514.0 -520.0 2588.0 -520.0Q2659.0 -520.0 2711.5 -489.0Q2764.0 -458.0 2792.5 -402.0Q2821.0 -346.0 2821.0 -270.0Q2821.0 -260.0 2820.5 -251.0Q2820.0 -242.0 2818.0 -231.0H2397.0V-298.0H2769.0L2743.0 -261.0Q2743.0 -353.0 2702.5 -402.5Q2662.0 -452.0 2588.0 -452.0Q2512.0 -452.0 2465.5 -399.5Q2419.0 -347.0 2419.0 -258.0Q2419.0 -167.0 2465.5 -112.5Q2512.0 -58.0 2590.0 -58.0Q2639.0 -58.0 2676.0 -79.5Q2713.0 -101.0 2730.0 -141.0H2806.0Q2781.0 -71.0 2722.5 -30.5Q2664.0 10.0 2586.0 10.0Z"/><path d="M2917.0 -234.0V-310.0H3263.0V-234.0Z"/><path d="M3600.0 10.0Q3530.0 10.0 3475.5 -24.5Q3421.0 -59.0 3389.5 -119.5Q3358.0 -180.0 3358.0 -257.0Q3358.0 -334.0 3389.5 -393.0Q3421.0 -452.0 3475.5 -486.0Q3530.0 -520.0 3599.0 -520.0Q3656.0 -520.0 3701.5 -498.0Q3747.0 -476.0 3776.5 -435.5Q3806.0 -395.0 3814.0 -341.0H3740.0Q3730.0 -390.0 3694.0 -421.0Q3658.0 -452.0 3601.0 -452.0Q3552.0 -452.0 3516.0 -428.0Q3480.0 -404.0 3460.0 -360.0Q3440.0 -316.0 3440.0 -257.0Q3440.0 -198.0 3460.0 -153.0Q3480.0 -108.0 3516.5 -83.0Q3553.0 -58.0 3602.0 -58.0Q3657.0 -58.0 3694.0 -88.5Q3731.0 -119.0 3741.0 -168.0H3815.0Q3806.0 -115.0 3775.5 -74.5Q3745.0 -34.0 3700.0 -12.0Q3655.0 10.0 3600.0 10.0Z"/><path d="M4141.0 10.0Q4066.0 10.0 4009.0 -25.0Q3952.0 -60.0 3920.5 -120.5Q3889.0 -181.0 3889.0 -257.0Q3889.0 -334.0 3921.0 -393.0Q3953.0 -452.0 4009.5 -486.0Q4066.0 -520.0 4141.0 -520.0Q4217.0 -520.0 4273.5 -486.0Q4330.0 -452.0 4361.5 -393.0Q4393.0 -334.0 4393.0 -257.0Q4393.0 -181.0 4361.5 -120.5Q4330.0 -60.0 4273.5 -25.0Q4217.0 10.0 4141.0 10.0ZM4141.0 -58.0Q4193.0 -58.0 4231.0 -83.5Q4269.0 -109.0 4290.0 -154.0Q4311.0 -199.0 4311.0 -258.0Q4311.0 -346.0 4264.5 -399.0Q4218.0 -452.0 4141.0 -452.0Q4065.0 -452.0 4018.0 -399.0Q3971.0 -346.0 3971.0 -258.0Q3971.0 -199.0 3992.0 -154.0Q4013.0 -109.0 4051.5 -83.5Q4090.0 -58.0 4141.0 -58.0Z"/><path d="M4513.0 0.0V-720.0H4593.0V0.0Z"/><path d="M4965.0 10.0Q4890.0 10.0 4833.0 -25.0Q4776.0 -60.0 4744.5 -120.5Q4713.0 -181.0 4713.0 -257.0Q4713.0 -334.0 4745.0 -393.0Q4777.0 -452.0 4833.5 -486.0Q4890.0 -520.0 4965.0 -520.0Q5041.0 -520.0 5097.5 -486.0Q5154.0 -452.0 5185.5 -393.0Q5217.0 -334.0 5217.0 -257.0Q5217.0 -181.0 5185.5 -120.5Q5154.0 -60.0 5097.5 -25.0Q5041.0 10.0 4965.0 10.0ZM4965.0 -58.0Q5017.0 -58.0 5055.0 -83.5Q5093.0 -109.0 5114.0 -154.0Q5135.0 -199.0 5135.0 -258.0Q5135.0 -346.0 5088.5 -399.0Q5042.0 -452.0 4965.0 -452.0Q4889.0 -452.0 4842.0 -399.0Q4795.0 -346.0 4795.0 -258.0Q4795.0 -199.0 4816.0 -154.0Q4837.0 -109.0 4875.5 -83.5Q4914.0 -58.0 4965.0 -58.0Z"/><path d="M5337.0 0.0V-510.0H5412.0V-380.0H5417.0V0.0ZM5417.0 -266.0 5404.0 -387.0Q5422.0 -452.0 5468.0 -486.0Q5514.0 -520.0 5574.0 -520.0Q5599.0 -520.0 5608.0 -516.0V-439.0Q5603.0 -441.0 5594.0 -441.5Q5585.0 -442.0 5572.0 -442.0Q5496.0 -442.0 5456.5 -396.5Q5417.0 -351.0 5417.0 -266.0Z"/><path d="M5912.0 0.0V-510.0H5987.0V-390.0H5992.0V0.0ZM6256.0 0.0V-338.0Q6256.0 -396.0 6230.0 -423.0Q6204.0 -450.0 6155.0 -450.0Q6109.0 -450.0 6072.0 -428.0Q6035.0 -406.0 6013.5 -367.0Q5992.0 -328.0 5992.0 -276.0L5979.0 -397.0Q6005.0 -454.0 6057.0 -487.0Q6109.0 -520.0 6170.0 -520.0Q6244.0 -520.0 6290.0 -476.5Q6336.0 -433.0 6336.0 -359.0V0.0ZM6600.0 0.0V-338.0Q6600.0 -396.0 6574.0 -423.0Q6548.0 -450.0 6499.0 -450.0Q6453.0 -450.0 6416.0 -428.0Q6379.0 -406.0 6357.5 -367.0Q6336.0 -328.0 6336.0 -276.0L6316.0 -397.0Q6342.0 -454.0 6396.0 -487.0Q6450.0 -520.0 6512.0 -520.0Q6586.0 -520.0 6633.0 -476.5Q6680.0 -433.0 6680.0 -359.0V0.0Z"/><path d="M7144.0 0.0Q7140.0 -17.0 7138.5 -39.0Q7137.0 -61.0 7137.0 -95.0H7132.0V-339.0Q7132.0 -397.0 7105.5 -424.5Q7079.0 -452.0 7020.0 -452.0Q6962.0 -452.0 6927.5 -428.5Q6893.0 -405.0 6889.0 -362.0H6812.0Q6817.0 -436.0 6874.0 -478.0Q6931.0 -520.0 7023.0 -520.0Q7118.0 -520.0 7164.0 -475.0Q7210.0 -430.0 7210.0 -340.0V-95.0Q7210.0 -73.0 7213.0 -49.5Q7216.0 -26.0 7221.0 0.0ZM6969.0 10.0Q6890.0 10.0 6843.5 -28.5Q6797.0 -67.0 6797.0 -134.0Q6797.0 -201.0 6843.0 -238.0Q6889.0 -275.0 6977.0 -290.0L7155.0 -320.0V-254.0L6989.0 -228.0Q6933.0 -219.0 6904.0 -198.0Q6875.0 -177.0 6875.0 -137.0Q6875.0 -98.0 6901.5 -78.0Q6928.0 -58.0 6980.0 -58.0Q7047.0 -58.0 7089.5 -88.5Q7132.0 -119.0 7132.0 -168.0L7145.0 -97.0Q7129.0 -46.0 7082.5 -18.0Q7036.0 10.0 6969.0 10.0Z"/><path d="M7535.0 10.0Q7441.0 10.0 7385.0 -33.5Q7329.0 -77.0 7321.0 -157.0H7398.0Q7405.0 -108.0 7441.0 -82.0Q7477.0 -56.0 7537.0 -56.0Q7590.0 -56.0 7620.0 -76.0Q7650.0 -96.0 7650.0 -133.0Q7650.0 -159.0 7633.0 -178.5Q7616.0 -198.0 7565.0 -211.0L7483.0 -232.0Q7413.0 -250.0 7378.0 -287.5Q7343.0 -325.0 7343.0 -377.0Q7343.0 -443.0 7392.0 -481.5Q7441.0 -520.0 7525.0 -520.0Q7608.0 -520.0 7660.0 -480.0Q7712.0 -440.0 7719.0 -369.0H7642.0Q7635.0 -410.0 7604.0 -432.0Q7573.0 -454.0 7522.0 -454.0Q7473.0 -454.0 7446.0 -435.5Q7419.0 -417.0 7419.0 -383.0Q7419.0 -357.0 7438.5 -338.0Q7458.0 -319.0 7504.0 -306.0L7584.0 -284.0Q7655.0 -265.0 7691.0 -226.0Q7727.0 -187.0 7727.0 -132.0Q7727.0 -65.0 7676.0 -27.5Q7625.0 10.0 7535.0 10.0Z"/><path d="M8039.0 9.0Q7954.0 9.0 7915.5 -29.5Q7877.0 -68.0 7877.0 -141.0V-629.0L7957.0 -659.0V-142.0Q7957.0 -99.0 7979.0 -79.0Q8001.0 -59.0 8051.0 -59.0Q8071.0 -59.0 8085.5 -61.5Q8100.0 -64.0 8109.0 -68.0V0.0Q8099.0 4.0 8080.5 6.5Q8062.0 9.0 8039.0 9.0ZM7772.0 -442.0V-510.0H8109.0V-442.0Z"/><path d="M8410.0 10.0Q8337.0 10.0 8281.0 -24.5Q8225.0 -59.0 8193.0 -119.0Q8161.0 -179.0 8161.0 -257.0Q8161.0 -335.0 8192.5 -394.5Q8224.0 -454.0 8281.0 -487.0Q8338.0 -520.0 8412.0 -520.0Q8483.0 -520.0 8535.5 -489.0Q8588.0 -458.0 8616.5 -402.0Q8645.0 -346.0 8645.0 -270.0Q8645.0 -260.0 8644.5 -251.0Q8644.0 -242.0 8642.0 -231.0H8221.0V-298.0H8593.0L8567.0 -261.0Q8567.0 -353.0 8526.5 -402.5Q8486.0 -452.0 8412.0 -452.0Q8336.0 -452.0 8289.5 -399.5Q8243.0 -347.0 8243.0 -258.0Q8243.0 -167.0 8289.5 -112.5Q8336.0 -58.0 8414.0 -58.0Q8463.0 -58.0 8500.0 -79.5Q8537.0 -101.0 8554.0 -141.0H8630.0Q8605.0 -71.0 8546.5 -30.5Q8488.0 10.0 8410.0 10.0Z"/><path d="M8765.0 0.0V-510.0H8840.0V-380.0H8845.0V0.0ZM8845.0 -266.0 8832.0 -387.0Q8850.0 -452.0 8896.0 -486.0Q8942.0 -520.0 9002.0 -520.0Q9027.0 -520.0 9036.0 -516.0V-439.0Q9031.0 -441.0 9022.0 -441.5Q9013.0 -442.0 9000.0 -442.0Q8924.0 -442.0 8884.5 -396.5Q8845.0 -351.0 8845.0 -266.0Z"/></g><rect x="920.0" y="922" width="127.5" height="68" fill="#1D251F"/><rect x="1047.5" y="922" width="127.5" height="68" fill="#F5F1E7"/><rect x="1175.0" y="922" width="127.5" height="68" fill="#AD4F31"/><rect x="1302.5" y="922" width="127.5" height="68" fill="#E58C69"/><path d="M70 1038H1430" stroke="#d6d8ce"/><g fill="#171C18" transform="translate(70 1071) scale(0.016)" aria-label="Vector logos / App icons / Social graphics / Brand guide"><path d="M314.0 0.0 36.0 -720.0H124.0L382.0 -36.0H352.0L609.0 -720.0H692.0L414.0 0.0Z"/><path d="M946.0 10.0Q873.0 10.0 817.0 -24.5Q761.0 -59.0 729.0 -119.0Q697.0 -179.0 697.0 -257.0Q697.0 -335.0 728.5 -394.5Q760.0 -454.0 817.0 -487.0Q874.0 -520.0 948.0 -520.0Q1019.0 -520.0 1071.5 -489.0Q1124.0 -458.0 1152.5 -402.0Q1181.0 -346.0 1181.0 -270.0Q1181.0 -260.0 1180.5 -251.0Q1180.0 -242.0 1178.0 -231.0H757.0V-298.0H1129.0L1103.0 -261.0Q1103.0 -353.0 1062.5 -402.5Q1022.0 -452.0 948.0 -452.0Q872.0 -452.0 825.5 -399.5Q779.0 -347.0 779.0 -258.0Q779.0 -167.0 825.5 -112.5Q872.0 -58.0 950.0 -58.0Q999.0 -58.0 1036.0 -79.5Q1073.0 -101.0 1090.0 -141.0H1166.0Q1141.0 -71.0 1082.5 -30.5Q1024.0 10.0 946.0 10.0Z"/><path d="M1503.0 10.0Q1433.0 10.0 1378.5 -24.5Q1324.0 -59.0 1292.5 -119.5Q1261.0 -180.0 1261.0 -257.0Q1261.0 -334.0 1292.5 -393.0Q1324.0 -452.0 1378.5 -486.0Q1433.0 -520.0 1502.0 -520.0Q1559.0 -520.0 1604.5 -498.0Q1650.0 -476.0 1679.5 -435.5Q1709.0 -395.0 1717.0 -341.0H1643.0Q1633.0 -390.0 1597.0 -421.0Q1561.0 -452.0 1504.0 -452.0Q1455.0 -452.0 1419.0 -428.0Q1383.0 -404.0 1363.0 -360.0Q1343.0 -316.0 1343.0 -257.0Q1343.0 -198.0 1363.0 -153.0Q1383.0 -108.0 1419.5 -83.0Q1456.0 -58.0 1505.0 -58.0Q1560.0 -58.0 1597.0 -88.5Q1634.0 -119.0 1644.0 -168.0H1718.0Q1709.0 -115.0 1678.5 -74.5Q1648.0 -34.0 1603.0 -12.0Q1558.0 10.0 1503.0 10.0Z"/><path d="M2036.0 9.0Q1951.0 9.0 1912.5 -29.5Q1874.0 -68.0 1874.0 -141.0V-629.0L1954.0 -659.0V-142.0Q1954.0 -99.0 1976.0 -79.0Q1998.0 -59.0 2048.0 -59.0Q2068.0 -59.0 2082.5 -61.5Q2097.0 -64.0 2106.0 -68.0V0.0Q2096.0 4.0 2077.5 6.5Q2059.0 9.0 2036.0 9.0ZM1769.0 -442.0V-510.0H2106.0V-442.0Z"/><path d="M2409.0 10.0Q2334.0 10.0 2277.0 -25.0Q2220.0 -60.0 2188.5 -120.5Q2157.0 -181.0 2157.0 -257.0Q2157.0 -334.0 2189.0 -393.0Q2221.0 -452.0 2277.5 -486.0Q2334.0 -520.0 2409.0 -520.0Q2485.0 -520.0 2541.5 -486.0Q2598.0 -452.0 2629.5 -393.0Q2661.0 -334.0 2661.0 -257.0Q2661.0 -181.0 2629.5 -120.5Q2598.0 -60.0 2541.5 -25.0Q2485.0 10.0 2409.0 10.0ZM2409.0 -58.0Q2461.0 -58.0 2499.0 -83.5Q2537.0 -109.0 2558.0 -154.0Q2579.0 -199.0 2579.0 -258.0Q2579.0 -346.0 2532.5 -399.0Q2486.0 -452.0 2409.0 -452.0Q2333.0 -452.0 2286.0 -399.0Q2239.0 -346.0 2239.0 -258.0Q2239.0 -199.0 2260.0 -154.0Q2281.0 -109.0 2319.5 -83.5Q2358.0 -58.0 2409.0 -58.0Z"/><path d="M2781.0 0.0V-510.0H2856.0V-380.0H2861.0V0.0ZM2861.0 -266.0 2848.0 -387.0Q2866.0 -452.0 2912.0 -486.0Q2958.0 -520.0 3018.0 -520.0Q3043.0 -520.0 3052.0 -516.0V-439.0Q3047.0 -441.0 3038.0 -441.5Q3029.0 -442.0 3016.0 -442.0Q2940.0 -442.0 2900.5 -396.5Q2861.0 -351.0 2861.0 -266.0Z"/><path d="M3356.0 0.0V-720.0H3436.0V0.0Z"/><path d="M3808.0 10.0Q3733.0 10.0 3676.0 -25.0Q3619.0 -60.0 3587.5 -120.5Q3556.0 -181.0 3556.0 -257.0Q3556.0 -334.0 3588.0 -393.0Q3620.0 -452.0 3676.5 -486.0Q3733.0 -520.0 3808.0 -520.0Q3884.0 -520.0 3940.5 -486.0Q3997.0 -452.0 4028.5 -393.0Q4060.0 -334.0 4060.0 -257.0Q4060.0 -181.0 4028.5 -120.5Q3997.0 -60.0 3940.5 -25.0Q3884.0 10.0 3808.0 10.0ZM3808.0 -58.0Q3860.0 -58.0 3898.0 -83.5Q3936.0 -109.0 3957.0 -154.0Q3978.0 -199.0 3978.0 -258.0Q3978.0 -346.0 3931.5 -399.0Q3885.0 -452.0 3808.0 -452.0Q3732.0 -452.0 3685.0 -399.0Q3638.0 -346.0 3638.0 -258.0Q3638.0 -199.0 3659.0 -154.0Q3680.0 -109.0 3718.5 -83.5Q3757.0 -58.0 3808.0 -58.0Z"/><path d="M4383.0 215.0Q4292.0 215.0 4231.5 172.5Q4171.0 130.0 4158.0 60.0H4234.0Q4245.0 100.0 4283.5 123.5Q4322.0 147.0 4388.0 147.0Q4466.0 147.0 4506.0 104.5Q4546.0 62.0 4546.0 -20.0V-129.0L4556.0 -127.0Q4539.0 -69.0 4488.0 -34.5Q4437.0 0.0 4367.0 0.0Q4300.0 0.0 4249.0 -32.5Q4198.0 -65.0 4170.0 -123.0Q4142.0 -181.0 4142.0 -258.0Q4142.0 -336.0 4171.0 -395.0Q4200.0 -454.0 4252.5 -486.5Q4305.0 -519.0 4375.0 -519.0Q4447.0 -519.0 4495.5 -484.0Q4544.0 -449.0 4560.0 -384.0L4551.0 -383.0V-510.0H4626.0V-20.0Q4626.0 89.0 4561.0 152.0Q4496.0 215.0 4383.0 215.0ZM4387.0 -69.0Q4462.0 -69.0 4506.0 -121.0Q4550.0 -173.0 4550.0 -262.0Q4550.0 -349.0 4506.0 -399.5Q4462.0 -450.0 4387.0 -450.0Q4311.0 -450.0 4267.5 -399.0Q4224.0 -348.0 4224.0 -259.0Q4224.0 -172.0 4268.0 -120.5Q4312.0 -69.0 4387.0 -69.0Z"/><path d="M4998.0 10.0Q4923.0 10.0 4866.0 -25.0Q4809.0 -60.0 4777.5 -120.5Q4746.0 -181.0 4746.0 -257.0Q4746.0 -334.0 4778.0 -393.0Q4810.0 -452.0 4866.5 -486.0Q4923.0 -520.0 4998.0 -520.0Q5074.0 -520.0 5130.5 -486.0Q5187.0 -452.0 5218.5 -393.0Q5250.0 -334.0 5250.0 -257.0Q5250.0 -181.0 5218.5 -120.5Q5187.0 -60.0 5130.5 -25.0Q5074.0 10.0 4998.0 10.0ZM4998.0 -58.0Q5050.0 -58.0 5088.0 -83.5Q5126.0 -109.0 5147.0 -154.0Q5168.0 -199.0 5168.0 -258.0Q5168.0 -346.0 5121.5 -399.0Q5075.0 -452.0 4998.0 -452.0Q4922.0 -452.0 4875.0 -399.0Q4828.0 -346.0 4828.0 -258.0Q4828.0 -199.0 4849.0 -154.0Q4870.0 -109.0 4908.5 -83.5Q4947.0 -58.0 4998.0 -58.0Z"/><path d="M5543.0 10.0Q5449.0 10.0 5393.0 -33.5Q5337.0 -77.0 5329.0 -157.0H5406.0Q5413.0 -108.0 5449.0 -82.0Q5485.0 -56.0 5545.0 -56.0Q5598.0 -56.0 5628.0 -76.0Q5658.0 -96.0 5658.0 -133.0Q5658.0 -159.0 5641.0 -178.5Q5624.0 -198.0 5573.0 -211.0L5491.0 -232.0Q5421.0 -250.0 5386.0 -287.5Q5351.0 -325.0 5351.0 -377.0Q5351.0 -443.0 5400.0 -481.5Q5449.0 -520.0 5533.0 -520.0Q5616.0 -520.0 5668.0 -480.0Q5720.0 -440.0 5727.0 -369.0H5650.0Q5643.0 -410.0 5612.0 -432.0Q5581.0 -454.0 5530.0 -454.0Q5481.0 -454.0 5454.0 -435.5Q5427.0 -417.0 5427.0 -383.0Q5427.0 -357.0 5446.5 -338.0Q5466.0 -319.0 5512.0 -306.0L5592.0 -284.0Q5663.0 -265.0 5699.0 -226.0Q5735.0 -187.0 5735.0 -132.0Q5735.0 -65.0 5684.0 -27.5Q5633.0 10.0 5543.0 10.0Z"/><path d="M6023.0 60.0 6276.0 -750.0H6346.0L6093.0 60.0Z"/><path d="M6642.0 0.0 6920.0 -720.0H6992.0L6721.0 0.0ZM7214.0 0.0 6943.0 -720.0H7020.0L7298.0 0.0ZM6780.0 -291.0H7156.0V-219.0H6780.0Z"/><path d="M7666.0 9.0Q7594.0 9.0 7545.0 -26.0Q7496.0 -61.0 7478.0 -125.0L7494.0 -127.0V205.0H7414.0V-510.0H7489.0V-391.0L7478.0 -394.0Q7497.0 -453.0 7550.0 -486.5Q7603.0 -520.0 7673.0 -520.0Q7741.0 -520.0 7791.5 -487.0Q7842.0 -454.0 7870.0 -395.0Q7898.0 -336.0 7898.0 -257.0Q7898.0 -177.0 7869.0 -117.0Q7840.0 -57.0 7788.0 -24.0Q7736.0 9.0 7666.0 9.0ZM7654.0 -61.0Q7730.0 -61.0 7773.0 -113.5Q7816.0 -166.0 7816.0 -257.0Q7816.0 -347.0 7773.0 -398.5Q7730.0 -450.0 7654.0 -450.0Q7578.0 -450.0 7534.0 -397.5Q7490.0 -345.0 7490.0 -254.0Q7490.0 -165.0 7534.0 -113.0Q7578.0 -61.0 7654.0 -61.0Z"/><path d="M8272.0 9.0Q8200.0 9.0 8151.0 -26.0Q8102.0 -61.0 8084.0 -125.0L8100.0 -127.0V205.0H8020.0V-510.0H8095.0V-391.0L8084.0 -394.0Q8103.0 -453.0 8156.0 -486.5Q8209.0 -520.0 8279.0 -520.0Q8347.0 -520.0 8397.5 -487.0Q8448.0 -454.0 8476.0 -395.0Q8504.0 -336.0 8504.0 -257.0Q8504.0 -177.0 8475.0 -117.0Q8446.0 -57.0 8394.0 -24.0Q8342.0 9.0 8272.0 9.0ZM8260.0 -61.0Q8336.0 -61.0 8379.0 -113.5Q8422.0 -166.0 8422.0 -257.0Q8422.0 -347.0 8379.0 -398.5Q8336.0 -450.0 8260.0 -450.0Q8184.0 -450.0 8140.0 -397.5Q8096.0 -345.0 8096.0 -254.0Q8096.0 -165.0 8140.0 -113.0Q8184.0 -61.0 8260.0 -61.0Z"/><path d="M8826.0 0.0V-510.0H8906.0V0.0ZM8820.0 -626.0V-720.0H8912.0V-626.0Z"/><path d="M9266.0 10.0Q9196.0 10.0 9141.5 -24.5Q9087.0 -59.0 9055.5 -119.5Q9024.0 -180.0 9024.0 -257.0Q9024.0 -334.0 9055.5 -393.0Q9087.0 -452.0 9141.5 -486.0Q9196.0 -520.0 9265.0 -520.0Q9322.0 -520.0 9367.5 -498.0Q9413.0 -476.0 9442.5 -435.5Q9472.0 -395.0 9480.0 -341.0H9406.0Q9396.0 -390.0 9360.0 -421.0Q9324.0 -452.0 9267.0 -452.0Q9218.0 -452.0 9182.0 -428.0Q9146.0 -404.0 9126.0 -360.0Q9106.0 -316.0 9106.0 -257.0Q9106.0 -198.0 9126.0 -153.0Q9146.0 -108.0 9182.5 -83.0Q9219.0 -58.0 9268.0 -58.0Q9323.0 -58.0 9360.0 -88.5Q9397.0 -119.0 9407.0 -168.0H9481.0Q9472.0 -115.0 9441.5 -74.5Q9411.0 -34.0 9366.0 -12.0Q9321.0 10.0 9266.0 10.0Z"/><path d="M9807.0 10.0Q9732.0 10.0 9675.0 -25.0Q9618.0 -60.0 9586.5 -120.5Q9555.0 -181.0 9555.0 -257.0Q9555.0 -334.0 9587.0 -393.0Q9619.0 -452.0 9675.5 -486.0Q9732.0 -520.0 9807.0 -520.0Q9883.0 -520.0 9939.5 -486.0Q9996.0 -452.0 10027.5 -393.0Q10059.0 -334.0 10059.0 -257.0Q10059.0 -181.0 10027.5 -120.5Q9996.0 -60.0 9939.5 -25.0Q9883.0 10.0 9807.0 10.0ZM9807.0 -58.0Q9859.0 -58.0 9897.0 -83.5Q9935.0 -109.0 9956.0 -154.0Q9977.0 -199.0 9977.0 -258.0Q9977.0 -346.0 9930.5 -399.0Q9884.0 -452.0 9807.0 -452.0Q9731.0 -452.0 9684.0 -399.0Q9637.0 -346.0 9637.0 -258.0Q9637.0 -199.0 9658.0 -154.0Q9679.0 -109.0 9717.5 -83.5Q9756.0 -58.0 9807.0 -58.0Z"/><path d="M10179.0 0.0V-510.0H10254.0V-390.0H10259.0V0.0ZM10544.0 0.0V-334.0Q10544.0 -392.0 10515.0 -421.0Q10486.0 -450.0 10429.0 -450.0Q10379.0 -450.0 10340.5 -428.0Q10302.0 -406.0 10280.5 -367.0Q10259.0 -328.0 10259.0 -276.0L10246.0 -397.0Q10272.0 -454.0 10325.5 -487.0Q10379.0 -520.0 10447.0 -520.0Q10527.0 -520.0 10575.5 -474.5Q10624.0 -429.0 10624.0 -355.0V0.0Z"/><path d="M10949.0 10.0Q10855.0 10.0 10799.0 -33.5Q10743.0 -77.0 10735.0 -157.0H10812.0Q10819.0 -108.0 10855.0 -82.0Q10891.0 -56.0 10951.0 -56.0Q11004.0 -56.0 11034.0 -76.0Q11064.0 -96.0 11064.0 -133.0Q11064.0 -159.0 11047.0 -178.5Q11030.0 -198.0 10979.0 -211.0L10897.0 -232.0Q10827.0 -250.0 10792.0 -287.5Q10757.0 -325.0 10757.0 -377.0Q10757.0 -443.0 10806.0 -481.5Q10855.0 -520.0 10939.0 -520.0Q11022.0 -520.0 11074.0 -480.0Q11126.0 -440.0 11133.0 -369.0H11056.0Q11049.0 -410.0 11018.0 -432.0Q10987.0 -454.0 10936.0 -454.0Q10887.0 -454.0 10860.0 -435.5Q10833.0 -417.0 10833.0 -383.0Q10833.0 -357.0 10852.5 -338.0Q10872.0 -319.0 10918.0 -306.0L10998.0 -284.0Q11069.0 -265.0 11105.0 -226.0Q11141.0 -187.0 11141.0 -132.0Q11141.0 -65.0 11090.0 -27.5Q11039.0 10.0 10949.0 10.0Z"/><path d="M11429.0 60.0 11682.0 -750.0H11752.0L11499.0 60.0Z"/><path d="M12342.0 9.0Q12216.0 9.0 12141.5 -53.0Q12067.0 -115.0 12054.0 -230.0H12134.0Q12145.0 -147.0 12197.0 -105.0Q12249.0 -63.0 12341.0 -63.0Q12419.0 -63.0 12458.5 -92.5Q12498.0 -122.0 12498.0 -179.0Q12498.0 -228.0 12471.0 -257.0Q12444.0 -286.0 12387.0 -305.0L12266.0 -347.0Q12174.0 -379.0 12130.0 -424.5Q12086.0 -470.0 12086.0 -540.0Q12086.0 -598.0 12115.0 -640.5Q12144.0 -683.0 12197.0 -707.0Q12250.0 -731.0 12320.0 -731.0Q12428.0 -731.0 12493.0 -674.5Q12558.0 -618.0 12568.0 -514.0H12488.0Q12475.0 -589.0 12434.5 -624.0Q12394.0 -659.0 12318.0 -659.0Q12246.0 -659.0 12206.0 -630.0Q12166.0 -601.0 12166.0 -548.0Q12166.0 -503.0 12194.0 -476.0Q12222.0 -449.0 12281.0 -429.0L12410.0 -384.0Q12494.0 -355.0 12536.0 -305.5Q12578.0 -256.0 12578.0 -180.0Q12578.0 -90.0 12516.5 -40.5Q12455.0 9.0 12342.0 9.0Z"/><path d="M12910.0 10.0Q12835.0 10.0 12778.0 -25.0Q12721.0 -60.0 12689.5 -120.5Q12658.0 -181.0 12658.0 -257.0Q12658.0 -334.0 12690.0 -393.0Q12722.0 -452.0 12778.5 -486.0Q12835.0 -520.0 12910.0 -520.0Q12986.0 -520.0 13042.5 -486.0Q13099.0 -452.0 13130.5 -393.0Q13162.0 -334.0 13162.0 -257.0Q13162.0 -181.0 13130.5 -120.5Q13099.0 -60.0 13042.5 -25.0Q12986.0 10.0 12910.0 10.0ZM12910.0 -58.0Q12962.0 -58.0 13000.0 -83.5Q13038.0 -109.0 13059.0 -154.0Q13080.0 -199.0 13080.0 -258.0Q13080.0 -346.0 13033.5 -399.0Q12987.0 -452.0 12910.0 -452.0Q12834.0 -452.0 12787.0 -399.0Q12740.0 -346.0 12740.0 -258.0Q12740.0 -199.0 12761.0 -154.0Q12782.0 -109.0 12820.5 -83.5Q12859.0 -58.0 12910.0 -58.0Z"/><path d="M13484.0 10.0Q13414.0 10.0 13359.5 -24.5Q13305.0 -59.0 13273.5 -119.5Q13242.0 -180.0 13242.0 -257.0Q13242.0 -334.0 13273.5 -393.0Q13305.0 -452.0 13359.5 -486.0Q13414.0 -520.0 13483.0 -520.0Q13540.0 -520.0 13585.5 -498.0Q13631.0 -476.0 13660.5 -435.5Q13690.0 -395.0 13698.0 -341.0H13624.0Q13614.0 -390.0 13578.0 -421.0Q13542.0 -452.0 13485.0 -452.0Q13436.0 -452.0 13400.0 -428.0Q13364.0 -404.0 13344.0 -360.0Q13324.0 -316.0 13324.0 -257.0Q13324.0 -198.0 13344.0 -153.0Q13364.0 -108.0 13400.5 -83.0Q13437.0 -58.0 13486.0 -58.0Q13541.0 -58.0 13578.0 -88.5Q13615.0 -119.0 13625.0 -168.0H13699.0Q13690.0 -115.0 13659.5 -74.5Q13629.0 -34.0 13584.0 -12.0Q13539.0 10.0 13484.0 10.0Z"/><path d="M13811.0 0.0V-510.0H13891.0V0.0ZM13805.0 -626.0V-720.0H13897.0V-626.0Z"/><path d="M14361.0 0.0Q14357.0 -17.0 14355.5 -39.0Q14354.0 -61.0 14354.0 -95.0H14349.0V-339.0Q14349.0 -397.0 14322.5 -424.5Q14296.0 -452.0 14237.0 -452.0Q14179.0 -452.0 14144.5 -428.5Q14110.0 -405.0 14106.0 -362.0H14029.0Q14034.0 -436.0 14091.0 -478.0Q14148.0 -520.0 14240.0 -520.0Q14335.0 -520.0 14381.0 -475.0Q14427.0 -430.0 14427.0 -340.0V-95.0Q14427.0 -73.0 14430.0 -49.5Q14433.0 -26.0 14438.0 0.0ZM14186.0 10.0Q14107.0 10.0 14060.5 -28.5Q14014.0 -67.0 14014.0 -134.0Q14014.0 -201.0 14060.0 -238.0Q14106.0 -275.0 14194.0 -290.0L14372.0 -320.0V-254.0L14206.0 -228.0Q14150.0 -219.0 14121.0 -198.0Q14092.0 -177.0 14092.0 -137.0Q14092.0 -98.0 14118.5 -78.0Q14145.0 -58.0 14197.0 -58.0Q14264.0 -58.0 14306.5 -88.5Q14349.0 -119.0 14349.0 -168.0L14362.0 -97.0Q14346.0 -46.0 14299.5 -18.0Q14253.0 10.0 14186.0 10.0Z"/><path d="M14581.0 0.0V-720.0H14661.0V0.0Z"/><path d="M15224.0 215.0Q15133.0 215.0 15072.5 172.5Q15012.0 130.0 14999.0 60.0H15075.0Q15086.0 100.0 15124.5 123.5Q15163.0 147.0 15229.0 147.0Q15307.0 147.0 15347.0 104.5Q15387.0 62.0 15387.0 -20.0V-129.0L15397.0 -127.0Q15380.0 -69.0 15329.0 -34.5Q15278.0 0.0 15208.0 0.0Q15141.0 0.0 15090.0 -32.5Q15039.0 -65.0 15011.0 -123.0Q14983.0 -181.0 14983.0 -258.0Q14983.0 -336.0 15012.0 -395.0Q15041.0 -454.0 15093.5 -486.5Q15146.0 -519.0 15216.0 -519.0Q15288.0 -519.0 15336.5 -484.0Q15385.0 -449.0 15401.0 -384.0L15392.0 -383.0V-510.0H15467.0V-20.0Q15467.0 89.0 15402.0 152.0Q15337.0 215.0 15224.0 215.0ZM15228.0 -69.0Q15303.0 -69.0 15347.0 -121.0Q15391.0 -173.0 15391.0 -262.0Q15391.0 -349.0 15347.0 -399.5Q15303.0 -450.0 15228.0 -450.0Q15152.0 -450.0 15108.5 -399.0Q15065.0 -348.0 15065.0 -259.0Q15065.0 -172.0 15109.0 -120.5Q15153.0 -69.0 15228.0 -69.0Z"/><path d="M15627.0 0.0V-510.0H15702.0V-380.0H15707.0V0.0ZM15707.0 -266.0 15694.0 -387.0Q15712.0 -452.0 15758.0 -486.0Q15804.0 -520.0 15864.0 -520.0Q15889.0 -520.0 15898.0 -516.0V-439.0Q15893.0 -441.0 15884.0 -441.5Q15875.0 -442.0 15862.0 -442.0Q15786.0 -442.0 15746.5 -396.5Q15707.0 -351.0 15707.0 -266.0Z"/><path d="M16300.0 0.0Q16296.0 -17.0 16294.5 -39.0Q16293.0 -61.0 16293.0 -95.0H16288.0V-339.0Q16288.0 -397.0 16261.5 -424.5Q16235.0 -452.0 16176.0 -452.0Q16118.0 -452.0 16083.5 -428.5Q16049.0 -405.0 16045.0 -362.0H15968.0Q15973.0 -436.0 16030.0 -478.0Q16087.0 -520.0 16179.0 -520.0Q16274.0 -520.0 16320.0 -475.0Q16366.0 -430.0 16366.0 -340.0V-95.0Q16366.0 -73.0 16369.0 -49.5Q16372.0 -26.0 16377.0 0.0ZM16125.0 10.0Q16046.0 10.0 15999.5 -28.5Q15953.0 -67.0 15953.0 -134.0Q15953.0 -201.0 15999.0 -238.0Q16045.0 -275.0 16133.0 -290.0L16311.0 -320.0V-254.0L16145.0 -228.0Q16089.0 -219.0 16060.0 -198.0Q16031.0 -177.0 16031.0 -137.0Q16031.0 -98.0 16057.5 -78.0Q16084.0 -58.0 16136.0 -58.0Q16203.0 -58.0 16245.5 -88.5Q16288.0 -119.0 16288.0 -168.0L16301.0 -97.0Q16285.0 -46.0 16238.5 -18.0Q16192.0 10.0 16125.0 10.0Z"/><path d="M16772.0 9.0Q16700.0 9.0 16651.0 -26.0Q16602.0 -61.0 16584.0 -125.0L16600.0 -127.0V205.0H16520.0V-510.0H16595.0V-391.0L16584.0 -394.0Q16603.0 -453.0 16656.0 -486.5Q16709.0 -520.0 16779.0 -520.0Q16847.0 -520.0 16897.5 -487.0Q16948.0 -454.0 16976.0 -395.0Q17004.0 -336.0 17004.0 -257.0Q17004.0 -177.0 16975.0 -117.0Q16946.0 -57.0 16894.0 -24.0Q16842.0 9.0 16772.0 9.0ZM16760.0 -61.0Q16836.0 -61.0 16879.0 -113.5Q16922.0 -166.0 16922.0 -257.0Q16922.0 -347.0 16879.0 -398.5Q16836.0 -450.0 16760.0 -450.0Q16684.0 -450.0 16640.0 -397.5Q16596.0 -345.0 16596.0 -254.0Q16596.0 -165.0 16640.0 -113.0Q16684.0 -61.0 16760.0 -61.0Z"/><path d="M17126.0 0.0V-720.0H17206.0V0.0ZM17491.0 0.0V-334.0Q17491.0 -392.0 17462.0 -421.0Q17433.0 -450.0 17376.0 -450.0Q17326.0 -450.0 17287.5 -428.0Q17249.0 -406.0 17227.5 -367.0Q17206.0 -328.0 17206.0 -276.0L17193.0 -397.0Q17219.0 -454.0 17272.5 -487.0Q17326.0 -520.0 17394.0 -520.0Q17474.0 -520.0 17522.5 -474.5Q17571.0 -429.0 17571.0 -355.0V0.0Z"/><path d="M17725.0 0.0V-510.0H17805.0V0.0ZM17719.0 -626.0V-720.0H17811.0V-626.0Z"/><path d="M18165.0 10.0Q18095.0 10.0 18040.5 -24.5Q17986.0 -59.0 17954.5 -119.5Q17923.0 -180.0 17923.0 -257.0Q17923.0 -334.0 17954.5 -393.0Q17986.0 -452.0 18040.5 -486.0Q18095.0 -520.0 18164.0 -520.0Q18221.0 -520.0 18266.5 -498.0Q18312.0 -476.0 18341.5 -435.5Q18371.0 -395.0 18379.0 -341.0H18305.0Q18295.0 -390.0 18259.0 -421.0Q18223.0 -452.0 18166.0 -452.0Q18117.0 -452.0 18081.0 -428.0Q18045.0 -404.0 18025.0 -360.0Q18005.0 -316.0 18005.0 -257.0Q18005.0 -198.0 18025.0 -153.0Q18045.0 -108.0 18081.5 -83.0Q18118.0 -58.0 18167.0 -58.0Q18222.0 -58.0 18259.0 -88.5Q18296.0 -119.0 18306.0 -168.0H18380.0Q18371.0 -115.0 18340.5 -74.5Q18310.0 -34.0 18265.0 -12.0Q18220.0 10.0 18165.0 10.0Z"/><path d="M18669.0 10.0Q18575.0 10.0 18519.0 -33.5Q18463.0 -77.0 18455.0 -157.0H18532.0Q18539.0 -108.0 18575.0 -82.0Q18611.0 -56.0 18671.0 -56.0Q18724.0 -56.0 18754.0 -76.0Q18784.0 -96.0 18784.0 -133.0Q18784.0 -159.0 18767.0 -178.5Q18750.0 -198.0 18699.0 -211.0L18617.0 -232.0Q18547.0 -250.0 18512.0 -287.5Q18477.0 -325.0 18477.0 -377.0Q18477.0 -443.0 18526.0 -481.5Q18575.0 -520.0 18659.0 -520.0Q18742.0 -520.0 18794.0 -480.0Q18846.0 -440.0 18853.0 -369.0H18776.0Q18769.0 -410.0 18738.0 -432.0Q18707.0 -454.0 18656.0 -454.0Q18607.0 -454.0 18580.0 -435.5Q18553.0 -417.0 18553.0 -383.0Q18553.0 -357.0 18572.5 -338.0Q18592.0 -319.0 18638.0 -306.0L18718.0 -284.0Q18789.0 -265.0 18825.0 -226.0Q18861.0 -187.0 18861.0 -132.0Q18861.0 -65.0 18810.0 -27.5Q18759.0 10.0 18669.0 10.0Z"/><path d="M19149.0 60.0 19402.0 -750.0H19472.0L19219.0 60.0Z"/><path d="M19872.0 0.0V-68.0H20102.0Q20168.0 -68.0 20207.0 -104.0Q20246.0 -140.0 20246.0 -201.0Q20246.0 -266.0 20205.0 -305.0Q20164.0 -344.0 20095.0 -344.0H19872.0V-410.0H20084.0Q20152.0 -410.0 20190.0 -443.0Q20228.0 -476.0 20228.0 -536.0Q20228.0 -592.0 20192.5 -622.0Q20157.0 -652.0 20089.0 -652.0H19872.0V-720.0H20096.0Q20195.0 -720.0 20252.5 -673.0Q20310.0 -626.0 20310.0 -545.0Q20310.0 -494.0 20287.0 -454.0Q20264.0 -414.0 20224.0 -391.5Q20184.0 -369.0 20132.0 -369.0L20137.0 -390.0Q20192.0 -390.0 20235.5 -364.0Q20279.0 -338.0 20304.5 -293.5Q20330.0 -249.0 20330.0 -192.0Q20330.0 -135.0 20302.5 -91.5Q20275.0 -48.0 20225.0 -24.0Q20175.0 0.0 20109.0 0.0ZM19818.0 0.0V-720.0H19900.0V0.0Z"/><path d="M20448.0 0.0V-510.0H20523.0V-380.0H20528.0V0.0ZM20528.0 -266.0 20515.0 -387.0Q20533.0 -452.0 20579.0 -486.0Q20625.0 -520.0 20685.0 -520.0Q20710.0 -520.0 20719.0 -516.0V-439.0Q20714.0 -441.0 20705.0 -441.5Q20696.0 -442.0 20683.0 -442.0Q20607.0 -442.0 20567.5 -396.5Q20528.0 -351.0 20528.0 -266.0Z"/><path d="M21121.0 0.0Q21117.0 -17.0 21115.5 -39.0Q21114.0 -61.0 21114.0 -95.0H21109.0V-339.0Q21109.0 -397.0 21082.5 -424.5Q21056.0 -452.0 20997.0 -452.0Q20939.0 -452.0 20904.5 -428.5Q20870.0 -405.0 20866.0 -362.0H20789.0Q20794.0 -436.0 20851.0 -478.0Q20908.0 -520.0 21000.0 -520.0Q21095.0 -520.0 21141.0 -475.0Q21187.0 -430.0 21187.0 -340.0V-95.0Q21187.0 -73.0 21190.0 -49.5Q21193.0 -26.0 21198.0 0.0ZM20946.0 10.0Q20867.0 10.0 20820.5 -28.5Q20774.0 -67.0 20774.0 -134.0Q20774.0 -201.0 20820.0 -238.0Q20866.0 -275.0 20954.0 -290.0L21132.0 -320.0V-254.0L20966.0 -228.0Q20910.0 -219.0 20881.0 -198.0Q20852.0 -177.0 20852.0 -137.0Q20852.0 -98.0 20878.5 -78.0Q20905.0 -58.0 20957.0 -58.0Q21024.0 -58.0 21066.5 -88.5Q21109.0 -119.0 21109.0 -168.0L21122.0 -97.0Q21106.0 -46.0 21059.5 -18.0Q21013.0 10.0 20946.0 10.0Z"/><path d="M21341.0 0.0V-510.0H21416.0V-390.0H21421.0V0.0ZM21706.0 0.0V-334.0Q21706.0 -392.0 21677.0 -421.0Q21648.0 -450.0 21591.0 -450.0Q21541.0 -450.0 21502.5 -428.0Q21464.0 -406.0 21442.5 -367.0Q21421.0 -328.0 21421.0 -276.0L21408.0 -397.0Q21434.0 -454.0 21487.5 -487.0Q21541.0 -520.0 21609.0 -520.0Q21689.0 -520.0 21737.5 -474.5Q21786.0 -429.0 21786.0 -355.0V0.0Z"/><path d="M22311.0 0.0V-119.0L22321.0 -116.0Q22302.0 -58.0 22251.5 -24.0Q22201.0 10.0 22131.0 10.0Q22062.0 10.0 22010.5 -23.0Q21959.0 -56.0 21930.5 -115.0Q21902.0 -174.0 21902.0 -253.0Q21902.0 -333.0 21931.0 -393.0Q21960.0 -453.0 22012.0 -486.0Q22064.0 -519.0 22134.0 -519.0Q22206.0 -519.0 22255.0 -484.0Q22304.0 -449.0 22322.0 -385.0L22306.0 -383.0V-720.0H22386.0V0.0ZM22146.0 -60.0Q22223.0 -60.0 22266.5 -112.5Q22310.0 -165.0 22310.0 -256.0Q22310.0 -345.0 22266.0 -397.0Q22222.0 -449.0 22146.0 -449.0Q22070.0 -449.0 22027.0 -397.0Q21984.0 -345.0 21984.0 -253.0Q21984.0 -163.0 22027.0 -111.5Q22070.0 -60.0 22146.0 -60.0Z"/><path d="M22949.0 215.0Q22858.0 215.0 22797.5 172.5Q22737.0 130.0 22724.0 60.0H22800.0Q22811.0 100.0 22849.5 123.5Q22888.0 147.0 22954.0 147.0Q23032.0 147.0 23072.0 104.5Q23112.0 62.0 23112.0 -20.0V-129.0L23122.0 -127.0Q23105.0 -69.0 23054.0 -34.5Q23003.0 0.0 22933.0 0.0Q22866.0 0.0 22815.0 -32.5Q22764.0 -65.0 22736.0 -123.0Q22708.0 -181.0 22708.0 -258.0Q22708.0 -336.0 22737.0 -395.0Q22766.0 -454.0 22818.5 -486.5Q22871.0 -519.0 22941.0 -519.0Q23013.0 -519.0 23061.5 -484.0Q23110.0 -449.0 23126.0 -384.0L23117.0 -383.0V-510.0H23192.0V-20.0Q23192.0 89.0 23127.0 152.0Q23062.0 215.0 22949.0 215.0ZM22953.0 -69.0Q23028.0 -69.0 23072.0 -121.0Q23116.0 -173.0 23116.0 -262.0Q23116.0 -349.0 23072.0 -399.5Q23028.0 -450.0 22953.0 -450.0Q22877.0 -450.0 22833.5 -399.0Q22790.0 -348.0 22790.0 -259.0Q22790.0 -172.0 22834.0 -120.5Q22878.0 -69.0 22953.0 -69.0Z"/><path d="M23518.0 10.0Q23468.0 10.0 23429.0 -10.5Q23390.0 -31.0 23368.0 -68.5Q23346.0 -106.0 23346.0 -155.0V-510.0H23426.0V-176.0Q23426.0 -118.0 23454.5 -89.0Q23483.0 -60.0 23536.0 -60.0Q23584.0 -60.0 23621.0 -82.0Q23658.0 -104.0 23679.5 -143.5Q23701.0 -183.0 23701.0 -234.0L23714.0 -113.0Q23689.0 -56.0 23636.0 -23.0Q23583.0 10.0 23518.0 10.0ZM23706.0 0.0V-120.0H23701.0V-510.0H23781.0V0.0Z"/><path d="M23938.0 0.0V-510.0H24018.0V0.0ZM23932.0 -626.0V-720.0H24024.0V-626.0Z"/><path d="M24547.0 0.0V-119.0L24557.0 -116.0Q24538.0 -58.0 24487.5 -24.0Q24437.0 10.0 24367.0 10.0Q24298.0 10.0 24246.5 -23.0Q24195.0 -56.0 24166.5 -115.0Q24138.0 -174.0 24138.0 -253.0Q24138.0 -333.0 24167.0 -393.0Q24196.0 -453.0 24248.0 -486.0Q24300.0 -519.0 24370.0 -519.0Q24442.0 -519.0 24491.0 -484.0Q24540.0 -449.0 24558.0 -385.0L24542.0 -383.0V-720.0H24622.0V0.0ZM24382.0 -60.0Q24459.0 -60.0 24502.5 -112.5Q24546.0 -165.0 24546.0 -256.0Q24546.0 -345.0 24502.0 -397.0Q24458.0 -449.0 24382.0 -449.0Q24306.0 -449.0 24263.0 -397.0Q24220.0 -345.0 24220.0 -253.0Q24220.0 -163.0 24263.0 -111.5Q24306.0 -60.0 24382.0 -60.0Z"/><path d="M24991.0 10.0Q24918.0 10.0 24862.0 -24.5Q24806.0 -59.0 24774.0 -119.0Q24742.0 -179.0 24742.0 -257.0Q24742.0 -335.0 24773.5 -394.5Q24805.0 -454.0 24862.0 -487.0Q24919.0 -520.0 24993.0 -520.0Q25064.0 -520.0 25116.5 -489.0Q25169.0 -458.0 25197.5 -402.0Q25226.0 -346.0 25226.0 -270.0Q25226.0 -260.0 25225.5 -251.0Q25225.0 -242.0 25223.0 -231.0H24802.0V-298.0H25174.0L25148.0 -261.0Q25148.0 -353.0 25107.5 -402.5Q25067.0 -452.0 24993.0 -452.0Q24917.0 -452.0 24870.5 -399.5Q24824.0 -347.0 24824.0 -258.0Q24824.0 -167.0 24870.5 -112.5Q24917.0 -58.0 24995.0 -58.0Q25044.0 -58.0 25081.0 -79.5Q25118.0 -101.0 25135.0 -141.0H25211.0Q25186.0 -71.0 25127.5 -30.5Q25069.0 10.0 24991.0 10.0Z"/></g><g fill="#171C18" transform="translate(1315 1071) scale(0.016)" aria-label="Identity kit 01"><path d="M86.0 0.0V-720.0H168.0V0.0Z"/><path d="M705.0 0.0V-119.0L715.0 -116.0Q696.0 -58.0 645.5 -24.0Q595.0 10.0 525.0 10.0Q456.0 10.0 404.5 -23.0Q353.0 -56.0 324.5 -115.0Q296.0 -174.0 296.0 -253.0Q296.0 -333.0 325.0 -393.0Q354.0 -453.0 406.0 -486.0Q458.0 -519.0 528.0 -519.0Q600.0 -519.0 649.0 -484.0Q698.0 -449.0 716.0 -385.0L700.0 -383.0V-720.0H780.0V0.0ZM540.0 -60.0Q617.0 -60.0 660.5 -112.5Q704.0 -165.0 704.0 -256.0Q704.0 -345.0 660.0 -397.0Q616.0 -449.0 540.0 -449.0Q464.0 -449.0 421.0 -397.0Q378.0 -345.0 378.0 -253.0Q378.0 -163.0 421.0 -111.5Q464.0 -60.0 540.0 -60.0Z"/><path d="M1149.0 10.0Q1076.0 10.0 1020.0 -24.5Q964.0 -59.0 932.0 -119.0Q900.0 -179.0 900.0 -257.0Q900.0 -335.0 931.5 -394.5Q963.0 -454.0 1020.0 -487.0Q1077.0 -520.0 1151.0 -520.0Q1222.0 -520.0 1274.5 -489.0Q1327.0 -458.0 1355.5 -402.0Q1384.0 -346.0 1384.0 -270.0Q1384.0 -260.0 1383.5 -251.0Q1383.0 -242.0 1381.0 -231.0H960.0V-298.0H1332.0L1306.0 -261.0Q1306.0 -353.0 1265.5 -402.5Q1225.0 -452.0 1151.0 -452.0Q1075.0 -452.0 1028.5 -399.5Q982.0 -347.0 982.0 -258.0Q982.0 -167.0 1028.5 -112.5Q1075.0 -58.0 1153.0 -58.0Q1202.0 -58.0 1239.0 -79.5Q1276.0 -101.0 1293.0 -141.0H1369.0Q1344.0 -71.0 1285.5 -30.5Q1227.0 10.0 1149.0 10.0Z"/><path d="M1504.0 0.0V-510.0H1579.0V-390.0H1584.0V0.0ZM1869.0 0.0V-334.0Q1869.0 -392.0 1840.0 -421.0Q1811.0 -450.0 1754.0 -450.0Q1704.0 -450.0 1665.5 -428.0Q1627.0 -406.0 1605.5 -367.0Q1584.0 -328.0 1584.0 -276.0L1571.0 -397.0Q1597.0 -454.0 1650.5 -487.0Q1704.0 -520.0 1772.0 -520.0Q1852.0 -520.0 1900.5 -474.5Q1949.0 -429.0 1949.0 -355.0V0.0Z"/><path d="M2293.0 9.0Q2208.0 9.0 2169.5 -29.5Q2131.0 -68.0 2131.0 -141.0V-629.0L2211.0 -659.0V-142.0Q2211.0 -99.0 2233.0 -79.0Q2255.0 -59.0 2305.0 -59.0Q2325.0 -59.0 2339.5 -61.5Q2354.0 -64.0 2363.0 -68.0V0.0Q2353.0 4.0 2334.5 6.5Q2316.0 9.0 2293.0 9.0ZM2026.0 -442.0V-510.0H2363.0V-442.0Z"/><path d="M2466.0 0.0V-510.0H2546.0V0.0ZM2460.0 -626.0V-720.0H2552.0V-626.0Z"/><path d="M2908.0 9.0Q2823.0 9.0 2784.5 -29.5Q2746.0 -68.0 2746.0 -141.0V-629.0L2826.0 -659.0V-142.0Q2826.0 -99.0 2848.0 -79.0Q2870.0 -59.0 2920.0 -59.0Q2940.0 -59.0 2954.5 -61.5Q2969.0 -64.0 2978.0 -68.0V0.0Q2968.0 4.0 2949.5 6.5Q2931.0 9.0 2908.0 9.0ZM2641.0 -442.0V-510.0H2978.0V-442.0Z"/><path d="M3136.0 205.0 3250.0 -60.0 3268.0 -88.0 3435.0 -510.0H3517.0L3221.0 205.0ZM3259.0 5.0 3030.0 -510.0H3118.0L3315.0 -49.0Z"/><path d="M3815.0 0.0V-740.0H3895.0V0.0ZM4148.0 0.0 3877.0 -265.0 4138.0 -510.0H4248.0L3955.0 -242.0L3960.0 -289.0L4258.0 0.0Z"/><path d="M4346.0 0.0V-510.0H4426.0V0.0ZM4340.0 -626.0V-720.0H4432.0V-626.0Z"/><path d="M4788.0 9.0Q4703.0 9.0 4664.5 -29.5Q4626.0 -68.0 4626.0 -141.0V-629.0L4706.0 -659.0V-142.0Q4706.0 -99.0 4728.0 -79.0Q4750.0 -59.0 4800.0 -59.0Q4820.0 -59.0 4834.5 -61.5Q4849.0 -64.0 4858.0 -68.0V0.0Q4848.0 4.0 4829.5 6.5Q4811.0 9.0 4788.0 9.0ZM4521.0 -442.0V-510.0H4858.0V-442.0Z"/><path d="M5414.0 10.0Q5329.0 10.0 5265.5 -37.5Q5202.0 -85.0 5166.5 -169.5Q5131.0 -254.0 5131.0 -363.0Q5131.0 -472.0 5166.0 -554.5Q5201.0 -637.0 5265.0 -683.5Q5329.0 -730.0 5414.0 -730.0Q5499.0 -730.0 5562.5 -683.5Q5626.0 -637.0 5661.5 -554.5Q5697.0 -472.0 5697.0 -363.0Q5697.0 -253.0 5661.5 -169.0Q5626.0 -85.0 5562.5 -37.5Q5499.0 10.0 5414.0 10.0ZM5414.0 -62.0Q5475.0 -62.0 5518.0 -98.5Q5561.0 -135.0 5584.0 -202.5Q5607.0 -270.0 5607.0 -364.0Q5607.0 -457.0 5584.5 -523.0Q5562.0 -589.0 5519.0 -623.5Q5476.0 -658.0 5414.0 -658.0Q5352.0 -658.0 5309.0 -623.0Q5266.0 -588.0 5243.5 -522.5Q5221.0 -457.0 5221.0 -364.0Q5221.0 -270.0 5244.0 -202.0Q5267.0 -134.0 5310.0 -98.0Q5353.0 -62.0 5414.0 -62.0Z"/><path d="M5961.0 0.0V-638.0L5982.0 -633.0Q5970.0 -606.0 5936.0 -579.0Q5902.0 -552.0 5857.5 -532.0Q5813.0 -512.0 5766.0 -505.0V-582.0Q5813.0 -590.0 5856.0 -610.0Q5899.0 -630.0 5932.5 -658.5Q5966.0 -687.0 5982.0 -720.0H6041.0V0.0Z"/></g></svg>
